<?xml version="1.0" encoding="utf-8"?>
<!-- Generator: Adobe Illustrator 24.3.0, SVG Export Plug-In . SVG Version: 6.00 Build 0)  -->
<svg version="1.1" id="Layer_1" xmlns="http://www.w3.org/2000/svg" xmlns:xlink="http://www.w3.org/1999/xlink" x="0px" y="0px"
	 viewBox="0 0 64 64.6" style="enable-background:new 0 0 64 64.6;" xml:space="preserve">
<style type="text/css">
	.st0{display:none;}
	.st1{display:inline;fill:none;}
	.st2{display:inline;fill:#FFFFFF;}
	.st3{display:inline;}
	.st4{display:none;fill:#FFFFFF;}
	.st5{display:none;fill:none;}
	.st6{display:none;stroke:#000000;stroke-miterlimit:10;}
	.st7{display:none;fill:none;stroke:#000000;stroke-miterlimit:10;}
	.st8{fill:#FFFFFF;}
	.st9{display:none;fill:none;stroke:#FFFFFF;stroke-miterlimit:10;}
	.st10{display:none;fill:none;stroke:#000000;stroke-width:3;stroke-miterlimit:10;}
	.st11{fill:none;}
	.st12{display:none;fill:#FFFFFF;stroke:#FFFFFF;stroke-width:1.3339;stroke-miterlimit:10;}
	.st13{stroke:#FFFFFF;stroke-width:0.3392;stroke-miterlimit:10;}
	.st14{display:none;fill:none;stroke:#000000;stroke-width:0.1995;stroke-miterlimit:10;}
</style>
<g class="st0">
	<line class="st1" x1="-885.5" y1="-197.9" x2="-885.5" y2="-194.9"/>
	<line class="st1" x1="-885.5" y1="-219.7" x2="-885.5" y2="-209.4"/>
	<line class="st1" x1="-885.5" y1="-224.8" x2="-885.5" y2="-219.7"/>
	<path class="st2" d="M-877.9-226.3c-2.5-1.3-5.1-2.4-7.6-3.7v5.1"/>
	<path class="st2" d="M-879.7-271.8c5.4,1.7,10.5,4.1,15.7,6.6c5.8,2.9,0.7,11.5-5,8.6c-3.4-1.7-6.9-3.4-10.5-4.8
		c1.6,1.1,3.1,2.2,4.7,3.3c4.5,1.4,9.2,2.6,13.1,5.1c1.5,0.9,2.2,2.3,2.4,3.8c1.4,0.6,2.7,1,4.1,1.4c2.9,0.3,5.7,0.3,8.6,0.3
		c5.5,0,7,8.9,1.3,9.8c-0.7,0.1-1.4,0.2-2.1,0.3c1.2,1.5,2.4,3.1,3.5,4.7c3.1,4.5-2.8,8.8-6.8,6.8c-1.6-0.7-3.1-1.5-4.7-2.4
		c-0.2,0.3-0.4,0.5-0.6,0.7c-4.5,4.5-8.7,5.7-13.6,4.7c-2.6-0.6-5.3-1.7-8.5-3.3"/>
	<path class="st2" d="M-676.5-271.8c-67.8,0-135.5,0-203.2,0"/>
	<path class="st2" d="M-660.5-271.8c-0.8,3.4-1.6,6.8-2.2,10.3c1.3,0.4,2.4,1.5,2.7,3.4c0.4,2.3,0.4,4.5,0.3,6.6
		c0,0.1,0.1,0.1,0.1,0.2c19.5,2.6,38.2,7.9,56,16.2c7.2,3.3,14,7.5,20.9,11.5c1.2,0.7,2.4,2.6,2.4,3.9c0.1,21.6,0.1,43.1,0,64.7
		c0,0.2-0.1,0.5-0.4,1.3c-8-11.5-17.6-20.7-28.5-28.4c-15.2-10.6-31.8-17.6-49.7-21.1c-0.4,1.1-1.2,2.1-2.4,2.7
		c-0.6,0.7-1.4,1.2-2.2,1.5c-0.8,0.7-2,1-3.2,1c-0.9,0.4-1.9,0.5-2.9,0.4c-1.1,2.1-2.9,2.7-4.6,2.4c0,1,0,2-0.1,3
		c-0.1,5.6-6.6,6.1-9.1,2.4c-1.7-0.2-3.3-1.4-4-3.5c-0.1-0.2-0.1-0.4-0.1-0.5c-0.1,1.5-0.3,3-0.5,4.4c-1.1,6-9.3,3.8-9.8-1.3
		c-0.3-3-0.5-6-0.6-9c-0.9,2.9-4.4,3.7-7,2.5c-2.1,1.2-5.2,0.9-6.9-1.2c-0.2,0-0.4,0-0.6,0c-2.3,0-3.8-1.3-4.4-3
		c-0.2-0.4-0.4-0.9-0.4-1.4c-7.6,1.7-15.1,4.2-22.4,7.4c-10,4.4-19.6,10.3-28.6,16.6c-11.7,8.2-20.9,19.1-28.3,31.5
		c-7.6,12.7-12.3,26.2-13.4,41c-0.3,4-1.7,8-1.1,11.8c1.4,9.9,2.7,20,5.7,29.5c4.9,15.8,14.2,29.4,26,40.8
		c20.2,19.5,44.6,30.9,72.4,35.1c13.7,2.1,27.2,1.5,40.9,0c18.9-2.1,36.1,2.7,50.5,15.5c6.7,6,11.8,13.4,15.8,21.6
		c5.7,11.4,9.2,23.4,9.9,36.1c0.8,12.4-2.5,24.1-7.2,35.3c-2.8,6.8-7.2,13-11.7,18.9c-7.5,9.6-16.8,17.3-27.4,23.3
		c-22.1,12.4-45.9,16.6-71,13.4c-15.7-2-30.2-7.4-43.7-15.6c-11.3-7-20.8-15.9-28.3-26.7c-4.5-6.5-7.6-14-8.4-22.1
		c-0.1-0.8,1.2-2.5,1.9-2.4c15.3,0.6,30.8-2.2,45.9,1.9c5.2,1.4,10.3,4.2,14.6,7.5c14,10.8,29.4,13.8,46.3,10
		c12.7-2.8,23-9.9,29.8-20.9c5.6-9,6.5-19.4,3.8-29.6c-1.2-4.7-3.9-9.1-6.2-13.4c-2-3.7-5.8-5.1-9.8-5.2c-4.2-0.1-8.5,0.2-12.8,0.6
		c-25.6,2.1-50.5-1.2-74.8-9c-15.5-5-30.2-12-43.8-20.8c-10.7-7-20.8-15-29.6-24.5c-7.4-8-14.9-16-20-25.8
		c-4.3-8.1-9-16.1-12.3-24.6c-3.3-8.6-5-17.7-7.5-26.6c-4-14.1-3.4-28.5-1.4-42.6c2-14.9,5.8-29.6,13-43c5.4-10.1,11.6-20,18.7-29
		c9.9-12.6,21.9-23.3,35.2-32.5c18.2-12.6,38-21.5,59.4-27.1c6.4-1.7,12.8-3,19.2-4c0.1-1,0.4-1.9,0.9-2.7c0.4-0.8,1.1-1.5,1.8-2.1
		c0.9-1.4,2.5-2,4.1-2c1.1-1.4,2.8-2.2,4.7-2s3.5,1.7,4.1,3.5c0.9,0.1,1.9,0.4,2.6,1c0.2-0.7,0.3-1.4,0.5-2.1c1.2-4.2,8.2-5,9.5-0.6
		c0.1-0.7,0.2-1.4,0.3-2.2c0.1-0.8,0.2-1.6,0.3-2.4c0.5-3.1,3.8-4.1,6.4-3.3c1.2-1.9,3.4-2.5,5.4-2c0,0,0.1,0,0.1-0.1
		c0.3-1.4,0.6-2.9,1-4.3"/>
	<path class="st2" d="M-579.5-271.8c-27.1,0-54.1,0-81.2,0"/>
	<line class="st1" x1="-579.5" y1="187.8" x2="-579.5" y2="-271.8"/>
	<line class="st1" x1="-885.5" y1="187.8" x2="-579.5" y2="187.8"/>
	<line class="st1" x1="-885.5" y1="89.3" x2="-885.5" y2="187.8"/>
	<line class="st1" x1="-885.5" y1="-6.4" x2="-885.5" y2="89.3"/>
	<line class="st1" x1="-885.5" y1="-194.9" x2="-885.5" y2="-6.4"/>
	<path class="st3" d="M-590.2,84.3c-0.8-12.8-4.2-24.7-9.9-36.1c-4.1-8.2-9.1-15.6-15.9-21.6c-14.4-12.8-31.6-17.7-50.5-15.5
		c-13.7,1.5-27.2,2.1-40.9,0c-27.8-4.2-52.2-15.6-72.4-35.1c-11.8-11.4-21.1-25-26-40.8c0,0-6.4-16.6-5.7-29.5
		c0.1-1.6,0.2-3.4,0.2-3.4s0.3-4.3,0.9-8.4c3.2-23.3,13.4-41,13.4-41c7.4-12.4,16.6-23.3,28.3-31.5c9-6.3,18.5-12.2,28.6-16.6
		c7.3-3.2,14.8-5.6,22.4-7.4c-0.1-0.5-0.1-1.1-0.1-1.6c0-0.2,0-0.5,0-0.7c-0.1-0.7-0.1-1.4,0-2c0-0.2,0-0.4,0-0.6
		c-0.1-0.7-0.1-1.5,0-2.2c-0.1-0.5-0.1-0.9,0-1.4c-0.2-0.7-0.1-1.5,0-2.2c-0.1-0.8-0.1-1.6,0.1-2.4c-0.3-0.9-0.3-2-0.1-2.9
		c-0.2-0.8-0.3-1.7-0.1-2.5c0-0.3,0-0.6,0-0.9c-0.1-0.7-0.2-1.5,0-2.2c-0.1-0.6-0.1-1.3,0-1.9c-0.1-0.5-0.1-1,0-1.5
		c-0.2-0.8-0.2-1.8,0-2.6c-0.1-0.4-0.1-0.8-0.1-1.2c0-0.3,0-0.7,0-1c0-0.4,0-0.8,0.1-1.3c0-0.3,0-0.5,0-0.8c0-0.1,0-0.1,0-0.2
		c-0.2-0.8-0.2-1.7-0.1-2.5c0,0,0,0,0-0.1c-0.1-0.5-0.1-1-0.1-1.5c-0.1-0.7-0.2-1.5-0.1-2.2c-0.1-0.6-0.1-1.2,0-1.8
		c0-0.4,0-0.9,0.1-1.3c-0.1-0.4-0.1-0.7-0.1-1.1c-0.3-1-0.2-2.1,0-3.1c-0.1-0.3-0.1-0.7,0-1c-0.1-0.4-0.1-0.9-0.1-1.4
		c-6.4,1-12.9,2.3-19.2,4c-21.4,5.6-41.2,14.5-59.4,27.1c-13.3,9.2-25.3,19.8-35.2,32.5c-7.1,9-13.2,18.9-18.7,29
		c-7.2,13.4-10.9,28.1-13,43c-1.9,14.1-2.6,28.5,1.4,42.6c2.5,8.9,4.2,18,7.5,26.6c3.3,8.5,8,16.5,12.3,24.6
		c5.1,9.8,12.6,17.7,20,25.8C-813.8,14-803.7,22-793,29c13.6,8.9,28.2,15.9,43.8,20.8c24.4,7.8,49.3,11.1,74.8,9
		c4.2-0.3,8.5-0.6,12.8-0.6c4,0.1,7.8,1.5,9.8,5.2c2.4,4.3,5,8.7,6.2,13.4c2.7,10.2,1.8,20.6-3.8,29.6c-6.9,11-17.1,18.1-29.8,20.9
		c-16.9,3.8-32.4,0.8-46.3-10c-4.3-3.3-9.4-6.1-14.6-7.5c-15.1-4.1-30.6-1.3-45.9-1.9c-0.6,0-1.9,1.6-1.9,2.4
		c0.8,8.1,3.8,15.6,8.4,22.1c7.5,10.8,17,19.7,28.3,26.7c13.5,8.3,28,13.6,43.7,15.6c25.1,3.3,48.8-0.9,71-13.4
		c10.6-6,19.9-13.7,27.4-23.3c4.5-5.8,8.9-12.1,11.7-18.9C-592.7,108.4-589.3,96.7-590.2,84.3z"/>
	<path class="st3" d="M-580.2-219.7c0-1.3-1.2-3.2-2.4-3.9c-6.9-4-13.7-8.2-20.9-11.5c-17.8-8.3-36.6-13.6-56-16.2
		c0.6,1.2,0.7,2.6,0.4,3.9c0,0.1,0,0.2,0,0.3s0,0.2,0,0.3c0.1,0.4,0.2,0.8,0.2,1.2c0.1,0.3,0.1,0.7,0.1,1v0.2c0,0.1,0,0.1,0,0.2
		c0,0.2,0,0.3,0,0.5v0.2c0,0.1,0,0.2,0,0.3c0.1,0.4,0.2,0.9,0.2,1.3v0.3c0,0.2,0,0.3,0,0.5s0.1,0.5,0,0.7v0.2c0,0.2,0,0.4,0,0.5
		c0.2,0.4,0.2,0.9,0.2,1.4v0.1c0,0.3,0,0.6-0.1,0.9c0,0.3,0,0.6,0,0.8s0,0.5,0,0.8c0,0.6,0,1.1-0.2,1.6c0,0.1,0,0.1,0,0.2
		c0,0.2,0,0.5,0,0.7v0.1c0.1,0.4,0.2,0.8,0.2,1.3v0.1c0,0.2,0,0.3,0,0.4c0.1,0.3,0.1,0.7,0.1,1.1v0.1c0,0.1,0,0.1,0,0.2
		c0,0.1,0,0.3,0,0.4v0.2v0.1c0.2,0.9,0.1,1.9-0.2,2.8c0.2,0.4,0.2,0.9,0.2,1.4v0.2c0,0.5-0.1,0.9-0.2,1.4v0.1
		c0.1,0.4,0.2,0.9,0.2,1.4v0.3c0,0.3,0,0.6-0.1,0.8c0.1,0.3,0.1,0.6,0.1,0.9v0.8c0,0.1,0,0.1,0,0.2c0,0.2,0,0.3,0,0.5v0.1
		c0,0.1,0,0.1,0,0.2c0,0.1,0,0.3,0,0.4v0.3c0,0.1,0,0.3,0,0.4c0,0.2,0,0.4,0,0.6v0.4c0,0.1,0,0.1,0,0.1c0,0.1,0,0.2,0,0.4v0.1
		c0,0.1,0,0.1,0,0.1c0,0.1,0,0.2,0,0.4v0.1v0.1c0,0.1,0,0.2,0,0.3v0.1c0,0.1,0,0.1,0,0.2c0,0.2,0,0.3,0,0.5v0.3c0,0.1,0,0.1,0,0.2
		c0,0.1,0,0.3,0,0.4v0.2c0,0.1,0,0.1,0,0.1c0,0.1,0,0.2,0,0.4v0.2c0,0.1,0,0.1,0,0.1l0.1,0.7c0,0.4-0.1,0.8-0.2,1.2
		c0.2,0.5,0.4,1.1,0.3,1.7v0.1c0,0.2,0,0.4,0,0.5c0,0.2,0,0.4,0,0.7v0.3c0,0.4-0.1,0.9-0.2,1.3c0,0.7-0.1,1.3-0.3,1.9
		c17.9,3.5,34.5,10.5,49.7,21.1c11,7.7,20.6,16.9,28.5,28.4c0.3-0.8,0.4-1,0.4-1.3C-580.2-176.5-580.2-198.1-580.2-219.7z"/>
</g>
<rect x="-706" y="-337.6" class="st4" width="178.5" height="159.3"/>
<polyline class="st4" points="-900.9,-258 -959.2,-258 -959.2,-394.3 -852.2,-394.3 -852.2,-258 "/>
<line class="st5" x1="-852.2" y1="-258" x2="-900.9" y2="-258"/>
<line class="st5" x1="-725" y1="-336.9" x2="-722" y2="-51.9"/>
<path class="st4" d="M-649.5-251.6c-0.5,56.9,1.5,114.9,1.8,172.4"/>
<path class="st0" d="M-659.5-289.3c0.7,35.5,0.7,72.5,1.2,108.5"/>
<line class="st5" x1="-710.7" y1="-364.2" x2="-707.7" y2="-79.3"/>
<line class="st5" x1="-718.2" y1="-250.4" x2="-718.2" y2="-250.4"/>
<path class="st6" d="M-718.2-250.6c0.1,15.8,0.1,32.4,0.5,47.9"/>
<line class="st7" x1="-659.2" y1="-251.3" x2="-658.5" y2="-203.3"/>
<rect x="-706" y="-252.1" class="st6" width="35" height="196.9"/>
<path class="st0" d="M310.8,370.6h-27.6c-8.2,0-14.8-6.6-14.8-14.8v-336c0-8.2,6.6-14.8,14.8-14.8h27.6c8.2,0,14.8,6.6,14.8,14.8
	v336C325.6,363.9,318.9,370.6,310.8,370.6z"/>
<line class="st7" x1="313.4" y1="-329.7" x2="614.5" y2="-329.7"/>
<line class="st7" x1="485.9" y1="-173.4" x2="787.2" y2="-173.4"/>
<g class="st0">
	<g class="st3">
		<path class="st8" d="M698-33.5c-150,0-300,0-450,0c0-150,0-300,0-450c150,0,300,0,450,0C698-333.5,698-183.5,698-33.5z
			 M314.9-219.6c7.2-0.6,14.1-1.4,21-1.8c21.1-1.2,42.2-2.4,63.3-3.3c4.6-0.2,9.5,0.5,14,1.6c12.2,3.1,21.8,10.4,29.3,20.3
			c6.1,8,10.9,17,17.6,24.3c21.5,23.6,48.2,33.4,79.8,26.5c8.8-1.9,17.3-5.5,25.5-9.3c9-4.2,16.6-10.5,23.8-18
			c-1.1-0.6-1.7-0.9-2.3-1.2c-19-8.8-37.8-18-57-26.3c-18.1-7.8-24.9-25.3-15.9-42.9c4.9-9.6,9.2-19.5,13.7-29.2
			c6.6-14.1,22-20.5,36.3-14.5c10.6,4.5,20.9,9.6,31.3,14.3c9.5,4.2,19,8.3,28.9,12.6c0.2-1.3,0.4-2.1,0.4-2.9
			c-0.6-24.1-7-46.4-21.8-65.6c-22.2-28.8-51.6-40-87.1-32.7c-20.4,4.2-37.2,15.7-50.7,31.4c-10,11.7-22.1,20-36.8,24.2
			c-14.7,4.2-29.7,5.5-45,4.6c-13-0.8-26-0.8-39.1-1c-9.7-0.1-19.4,0-29.3,0C314.9-278.4,314.9-249,314.9-219.6z"/>
		<path d="M314.9-219.6c0-29.5,0-58.9,0-88.7c9.9,0,19.6-0.1,29.3,0c13,0.2,26.1,0.2,39.1,1c15.3,0.9,30.3-0.3,45-4.6
			c14.7-4.3,26.7-12.5,36.8-24.2c13.5-15.7,30.4-27.2,50.7-31.4c35.5-7.3,64.9,3.9,87.1,32.7c14.8,19.2,21.2,41.5,21.8,65.6
			c0,0.8-0.2,1.7-0.4,2.9c-9.9-4.3-19.5-8.3-28.9-12.6c-10.5-4.7-20.8-9.9-31.3-14.3c-14.3-6-29.7,0.3-36.3,14.4
			c-4.6,9.7-8.8,19.6-13.7,29.2c-9,17.6-2.2,35.1,15.9,42.9c19.2,8.2,38,17.5,57,26.3c0.6,0.3,1.2,0.6,2.3,1.2
			c-7.2,7.4-14.8,13.8-23.8,18c-8.2,3.8-16.8,7.4-25.5,9.3c-31.7,6.9-58.3-2.9-79.8-26.5c-6.7-7.4-11.6-16.3-17.6-24.3
			c-7.5-9.9-17.1-17.2-29.3-20.3c-4.5-1.2-9.3-1.8-14-1.6c-21.1,0.9-42.2,2.1-63.3,3.3C329.1-220.9,322.3-220.2,314.9-219.6z"/>
	</g>
</g>
<image style="display:none;overflow:visible;enable-background:new    ;" width="306" height="377" xlink:href="5DDE4058.png"  transform="matrix(1.1569 -2.500000e-02 1.300000e-02 0.6038 233.1369 -209.5227)">
</image>
<path class="st6" d="M378.6,148.2c-5,0-5-7.8,0-7.8l0,0c-0.3-19.7-0.7-39.3-1-59c0-1,0-2,0-3c-0.2,0-0.4,0-0.6,0c-5,0-5-7.8,0-7.8
	c3.4,0,4.5,3.6,3.3,5.9c0.7,0,1.4,0,2.1,0c39.3-1,78.7-1.9,118-2.9l-1.8-8.9c-2.5-6.2-7.1-15.1-15.5-23.2
	c-8.2-7.8-16.4-11.4-25.6-15.5c-6.2-2.7-15.4-6.2-28-8.9c-26.9-5.8-52.8-4.2-68.5-2.4c-8.9,1-17.9,2-26.8,3
	c-1.8,0.2-3.6,0.4-5.4,0.6c-1,56.8-2,113.6-3,170.5c14.4,3.9,34.6,7.8,59,7.1c19.1-0.5,35.4-3.7,47.8-7.1
	c5.5-1.1,15.3-3.8,24.9-11.4c15.7-12.4,19.8-29.4,20.9-34.6c-32,0.4-63.9,0.8-95.9,1.1C382.4,146,381.1,148.2,378.6,148.2z"/>
<g class="st0">
	<g class="st3">
		<path d="M377.1,76.9c3.2,0,3.2-5,0-5S373.9,76.9,377.1,76.9L377.1,76.9z"/>
	</g>
</g>
<g class="st0">
	<g class="st3">
		<path d="M380.1,75c0.2-0.2,0.5-0.4,0.7-0.6s0.4-0.5,0.5-0.8c0.2-0.3,0.2-0.6,0.2-1c0-0.3-0.1-0.7-0.2-1s-0.3-0.6-0.5-0.8
			c-0.2-0.1-0.3-0.3-0.5-0.4c-0.4-0.2-0.8-0.3-1.3-0.3c-0.2,0-0.4,0.1-0.7,0.1c-0.4,0.1-0.8,0.3-1.1,0.6c-0.2,0.2-0.5,0.4-0.7,0.6
			s-0.4,0.5-0.5,0.8c-0.2,0.3-0.2,0.6-0.2,1c0,0.3,0.1,0.7,0.2,1s0.3,0.6,0.5,0.8c0.2,0.1,0.3,0.3,0.5,0.4c0.4,0.2,0.8,0.3,1.3,0.3
			c0.2,0,0.4-0.1,0.7-0.1C379.4,75.5,379.9,75.3,380.1,75L380.1,75z"/>
	</g>
</g>
<g class="st0">
	<g class="st3">
		<path d="M380.1,74.8c1-0.2,2.1-1.2,2.2-2.3c0.1-0.9,0-1.7-0.6-2.4c-0.7-0.6-1.6-0.9-2.4-0.6c-1.1,0.3-2.3,0.5-3.4,0.8
			c-0.6,0.1-1.1,0.3-1.7,0.4c-0.3,0.1-0.6,0.1-0.8,0.2c-0.1,0-0.3,0.1-0.4,0.1c-0.7,0.1-0.3,0.2,1.2,0.2c0.3,0.3,0.6,0.6,0.9,0.9
			c0.3,0.8,0.3,1.4-0.1,2c-0.1,0.2-0.1,0.1,0,0s0.3-0.2,0.4-0.4c0.3-0.2,0.5-0.4,0.8-0.7c0.1-0.1,0.1-0.1-0.1,0.1
			c0.1-0.1,0.2-0.1,0.2-0.2c0.1-0.1,0.2-0.2,0.4-0.3c0.3-0.2,0.6-0.4,0.9-0.6c0.6-0.4,1.2-0.7,1.8-1c0.2-0.1,0.3-0.2,0.5-0.2
			c0.1,0,0.5-0.2,0.5-0.2c-0.1,0-0.2,0.1-0.2,0.1c0.1,0,0.2-0.1,0.3-0.1c0.2-0.1,0.3-0.1,0.5-0.2c-0.8-1.4-1.6-2.8-2.4-4.2
			c-3.7,3.5-7.4,7-10.7,11c-0.8,1-1,2.2-0.2,3.3c0.7,0.9,2.2,1.4,3.2,0.6c3.8-2.8,7.4-5.7,11-8.7c-1.2-1.2-2.4-2.4-3.5-3.5
			c-2.6,2.3-5.1,4.6-7.6,7c-0.9,0.9-0.9,2.3-0.2,3.3c0.8,1,2.1,1.2,3.2,0.6c1.8-0.8,3.6-1.8,5.3-2.9c-0.8-1.4-1.7-2.9-2.5-4.3
			c-0.7,0.5-1.4,1-2.1,1.5c0.8,1.4,1.7,2.9,2.5,4.3c0.5-0.3,0.9-0.6,1.5-0.9c0.3-0.2-0.1,0-0.1,0l0.3-0.1c0.3-0.1,0.6-0.2,0.9-0.3
			c1.3-0.3,2.2-1.8,1.8-3.1c-0.4-1.4-1.7-2-3.1-1.8c-0.9,0.2-1.8,0.5-2.5,0.9c-1.1,0.6-1.8,1.5-2.2,2.7c-0.3,0.8,0,1.9,0.6,2.4
			c0.7,0.6,1.4,0.9,2.3,0.8s1.5-0.6,2-1.3c0.8-1.1,0.2-2.8-0.9-3.4c-1.3-0.7-2.6-0.2-3.4,0.9c0,0,0,0.1-0.1,0.1
			c0.5-0.4,1-0.8,1.5-1.1h-0.1c0.4,0,0.9,0,1.3,0h-0.1c0.4,0.2,0.7,0.4,1.1,0.6c0,0,0,0-0.1-0.1c0.2,0.8,0.4,1.6,0.6,2.4
			c-0.2,0.4-0.2,0.4-0.1,0.3c0.1-0.2,0-0.1-0.2,0.2l0.2-0.2c-0.3,0.2-0.4,0.3-0.2,0.2c0.1,0,0.1-0.1,0.2-0.1s0.5-0.2,0.1-0.1
			c-0.4,0.2,0.1,0,0.1,0c0.1,0,0.2-0.1,0.4-0.1c0.3-0.1,0.5-0.1,0.8-0.2c-0.4-1.6-0.9-3.2-1.3-4.8c-1.4,0.3-2.7,0.9-3.8,1.8
			c-1,0.8-1.7,2.2-0.9,3.4c0.7,1.1,2.3,1.7,3.4,0.9c0.7-0.5,1.4-1,2.1-1.5c1.1-0.7,1.7-2.2,0.9-3.4c-0.7-1.1-2.2-1.7-3.4-0.9
			c-1.7,1.1-3.5,2.1-5.3,2.9c1,1.3,2,2.6,3,3.9c2.5-2.4,5-4.7,7.6-7c1-0.9,1-2.7,0-3.5c-1.1-1-2.5-0.9-3.5,0
			c-1.7,1.4-3.4,2.8-5.1,4.1c-0.5,0.4-0.9,0.7-1.3,1c-0.6,0.4,0.4-0.3-0.2,0.1c-0.2,0.2-0.5,0.4-0.7,0.5c-0.9,0.7-1.8,1.4-2.7,2
			c1,1.3,2,2.6,3,3.9c3.2-4,7-7.5,10.7-11c0.8-0.7,1-2.1,0.4-3s-1.8-1.5-2.8-1.1c-1.6,0.6-3.2,1.3-4.6,2.2c-0.8,0.5-1.5,1-2.3,1.6
			c-0.7,0.6-1.5,1.1-2,1.9c-0.9,1.4-0.6,3.3,0.8,4.3c1.2,0.8,2.5,0.3,3.7,0c1.8-0.4,3.5-0.9,5.3-1.3c-1-1-2-2-3.1-3.1
			c-0.1,0.7,0.3,0.3,1.2-1.2c-1.3,0.3-2.2,1.8-1.8,3.1C377.6,74.4,378.8,75.1,380.1,74.8L380.1,74.8z"/>
	</g>
</g>
<g class="st0">
	<g class="st3">
		<path d="M375.3,151c0.8-2.4,0.9-5,0.3-7.5c-1.4,0.8-2.8,1.6-4.2,2.4c3.6,2.8,6.9,5.9,10,9.2c1.2-1.2,2.4-2.4,3.5-3.5
			c-1.5-1.3-2.8-2.7-4-4.2c-0.3-0.4-0.6-0.8-0.9-1.1c-0.1-0.1-0.2-0.3-0.4-0.5s-0.2-0.2,0,0c-0.1-0.1-0.2-0.2-0.2-0.3
			c-0.6-0.8-1.2-1.6-1.8-2.4c-0.4-0.5-0.8-1-1.5-1.1c-0.6-0.2-1.4-0.1-1.9,0.2c-1.1,0.7-1.7,2.2-0.9,3.4c1.2,1.9,2.4,3.8,3.7,5.8
			c1.3-1,2.6-2,3.9-3c-0.2-0.3-0.5-0.5-0.7-0.8c-0.1-0.1-0.1-0.1-0.2-0.2c0,0.1,0.1,0.1,0.2,0.2c-0.1-0.1-0.3-0.4-0.3-0.5
			c-0.4-0.6-0.8-1.2-1.1-1.8c-1.1,1.1-2.3,2.3-3.4,3.4c1.5,1,3,1.9,4.4,2.9c0.9,0.6,2.3,0.4,3-0.4c0.8-0.8,0.9-2,0.4-3
			c-0.6-1.1-1.2-2.3-1.8-3.4c-1.1,1.1-2.3,2.3-3.4,3.4c0.5,0.3,1.1,0.7,1.7,1c0.9,0.5,2,0.4,2.8-0.2s1.1-1.6,0.9-2.6
			c-0.2-0.9-0.6-1.9-1.1-2.7c-0.9,1.2-1.9,2.5-2.8,3.7c0.1,0,0.2,0,0.3,0.1c-0.6-0.2-1-0.6-1.2-1.3c0-0.4,0-0.9,0-1.3
			c2.6-0.7,3.4-1.2,2.4-1.5c0.1,0,0.2,0.1,0.4,0.1c0-0.1-0.4-0.2-0.5-0.3c-0.4-0.2-0.8-0.5-1.1-0.7c-0.1,0-0.5-0.4-0.2-0.1
			c0.4,0.3-0.4-0.4,0,0c0.1,0.2,0.1,0.2,0,0c0.1,0.1,0.2,0.3,0.2,0.5s0,0.4,0,0.5c-0.2,0.4-0.2,0.4-0.1,0.2c-1.5-0.6-3-1.3-4.6-1.9
			c-0.2,1-0.1,2,0.5,3c0.5,0.8,1.4,1.5,2.4,1.7c1.4,0.2,2.6-0.4,3.1-1.8c0.3-1.1,0-2.3-0.8-3.1c-1-1-2.4-1-3.6-0.4
			c-1.2,0.5-1.6,2.4-0.9,3.4c0.8,1.2,2.1,1.5,3.4,0.9c-2,0.5-3-0.2-2.9-2.1c1-0.6,2-1.2,3.1-1.8c-0.3,0,0.1,0.1,0.2,0.1
			c-0.3-0.2,0.2,0.2,0.3,0.3c0.2,0.3,0-0.2,0.1,0.2s0.1,0.5,0.1,0.9c0.2-1.2-0.2-2.4-1.5-3c-1.2-0.5-2.4,0-3.1,1
			c-1,1.5-0.5,3.4,0.5,4.6c0.7,0.9,1.9,1.5,2.9,2.1c1.5,0.9,3.6,0.8,4.5-0.8c1.1-1.9-0.3-4-2.2-4.4c-1-0.2-2,0.1-2.6,0.9
			c-0.6,0.7-0.8,2-0.2,2.8c0.1,0.1,0.2,0.3,0.3,0.5c0,0.1,0.3,0.5,0.1,0.2s0,0.2,0.1,0.2c0,0.2,0.1,0.4,0.1,0.5
			c1.2-0.9,2.5-1.9,3.7-2.8c-0.5-0.3-1.1-0.7-1.7-1c-0.9-0.5-2.3-0.4-3,0.4c-0.8,0.8-0.9,2-0.4,3c0.6,1.1,1.2,2.3,1.8,3.4
			c1.1-1.1,2.3-2.3,3.4-3.4c-1.5-1-3-1.9-4.4-2.9c-0.9-0.6-2.3-0.4-3,0.4c-0.8,0.8-0.9,2-0.4,3c0.8,1.5,1.8,2.9,3,4.2
			c0.8,0.9,2.3,0.9,3.3,0.2s1.3-2.2,0.6-3.2c-1.2-1.9-2.4-3.8-3.7-5.8c-1.4,0.8-2.9,1.7-4.3,2.5c2.5,3.3,5,6.7,8.1,9.5
			c1,0.9,2.6,1,3.5,0s1-2.5,0-3.5c-3.1-3.3-6.4-6.4-10-9.2c-0.9-0.7-2-1-3-0.4s-1.4,1.7-1.2,2.8c0.1,0.3,0.1,0.5,0.2,0.8
			c0.1,0.6,0-0.4,0,0.1s0.1,1,0,1.5c0,0.2,0,0.5,0,0.7c0.2-0.6,0,0.1,0,0.2c-0.1,0.5-0.2,1-0.4,1.5c-0.4,1.2,0.5,2.8,1.8,3.1
			C373.6,153.1,374.8,152.3,375.3,151L375.3,151z"/>
	</g>
</g>
<line class="st7" x1="449.1" y1="-235.8" x2="455.1" y2="103.6"/>
<path class="st7" d="M233.1,140.3"/>
<polyline class="st7" points="377.4,78.5 378.6,77.2 380.1,76.6 "/>
<polyline class="st7" points="382.3,144 380.1,142.3 378.6,140.4 "/>
<path class="st6" d="M349.8,38.8"/>
<polyline class="st6" points="325.6,188.8 325.6,18 328.6,18.3 "/>
<path class="st4" d="M-25.2-137.5c-2.4,1.3-4.8,2.6-7.3,3.8c-2.9,1.5-5.6,1.1-7.3-0.9c0,0.1,0,0.1-0.1,0.1c-0.9,1.8-2.6,3-4.4,3.8
	c-1.2,0.6-2.5,0.8-3.9,0.5c-0.5-0.1-0.9-0.3-1.3-0.6c-0.8,0.6-1.7,1-3,1c-0.6,0-1.2-0.1-1.7-0.3c-0.5,0.2-1,0.3-1.6,0.3
	c-0.3,0-0.5,0-0.8-0.1c-0.2,0-0.5,0.1-0.8,0.1c-3,0-4.6-2.2-4.8-4.5c0,0-0.1,0-0.1-0.1l-0.1-0.1c-0.1-0.1-0.2-0.2-0.3-0.2l-0.1-0.1
	c-0.1-0.1-0.2-0.2-0.4-0.4l0,0c-0.1-0.1-0.2-0.3-0.3-0.4c0,0,0-0.1-0.1-0.1c-0.1-0.1-0.1-0.2-0.2-0.4c0,0,0-0.1-0.1-0.1
	c-0.1-0.1-0.1-0.3-0.2-0.5l0,0c-0.1-0.2-0.1-0.4-0.2-0.6v-0.1c0-0.2-0.1-0.3-0.1-0.5v-0.1c0-0.2,0-0.4,0-0.6l0,0c0-0.2,0-0.4,0-0.6
	l0,0c0-0.2,0-0.4,0.1-0.6v-0.1c0-0.2,0.1-0.4,0.1-0.6l0,0c0.1-0.2,0.1-0.4,0.2-0.6c-0.7-0.4-1.3-1-1.8-1.8c-0.2-0.4-0.3-0.8-0.5-1.2
	c-0.1-0.4-0.2-0.9-0.2-1.3c-1.9-1.9-1.8-5.4,0.1-7.3c0.5-1.1,1.3-2,2.5-2.5c0.2-0.2,0.4-0.4,0.7-0.6h-126V41.6h106.6
	c-6.4,0-6.4-10,0-10c1,0,1.8,0.2,2.5,0.6c0.2,0,0.4-0.1,0.6-0.1c0,0,0.1,0,0.1-0.1c0,0,0,0,0.1,0s0.2-0.1,0.3-0.1h0.1
	c0.1,0,0.3-0.1,0.4-0.1c0,0,0,0,0.1,0s0.2,0,0.3,0c0.3,0,0.5-0.1,0.8-0.1c0.2,0,0.4,0,0.6,0c0.1,0,0.2,0,0.3,0s0.2,0,0.3,0
	c0.1,0,0.2,0.1,0.3,0.1c0,0,0.1,0,0.2,0s0.2,0.1,0.4,0.1h0.1c0.1,0.1,0.3,0.1,0.4,0.2l0,0c0.1,0.1,0.3,0.2,0.4,0.2l0,0
	c0.2,0.2,0.5,0.4,0.7,0.6c0.4-0.4,0.9-0.7,1.4-0.8c0.6-0.3,1.2-0.5,1.9-0.4h0.5c0.1,0,0.3,0,0.4,0s0.2,0,0.3,0c0.1,0,0.1,0,0.2,0
	s0.2,0,0.3,0h0.3c-0.3-2.7,1.3-5.6,4.8-5.6c-0.4-0.7-0.7-1.6-0.6-2.7c0.2-6.4,3.8-11.9,4.3-18.3c0.5-4.8,0.2-9.5-0.6-14.2
	c-0.4-2.7-0.9-5.5-1.1-8.3c-2.5,1.2-6.2,0.6-7.6-2.8s-3.3-7-6-9.5c-2.4-2.2-5.7-2.7-8.3-4.5c-1.5-1-2.9-2.3-4.1-3.8l0,0
	c-0.6,0-1.1-0.1-1.5-0.2c-0.4,0.1-0.9,0.2-1.4,0.2c-0.1,0-0.1,0-0.2,0c-0.8,0.6-1.8,1-3,1c-5.3,0-6.2-6.8-2.7-9.2
	c-1.1-2.1-0.6-5.1,1.4-6.6c0-0.1-0.1-0.3-0.1-0.4c0-0.2,0-0.4-0.1-0.6c-3.7-2.3-2.8-9.3,2.6-9.3c1.6,0,2.8,0.6,3.6,1.6
	c0,0,0.1,0,0.1,0.1c0.7-1.6,2.1-2.9,4.4-2.9c1.4,0,2.4,0.5,3.2,1.2c0.8-0.6,1.7-0.9,2.9-0.9c1,0,1.9,0.3,2.6,0.7
	c0.3-0.2,0.6-0.4,1-0.6c-1-2.9,0.5-6.8,4.5-6.8c0.5,0,1,0.1,1.4,0.2c0-0.1,0.1-0.2,0.1-0.3c0.1-0.3,0.3-0.5,0.4-0.8
	c0.1-0.1,0.1-0.2,0.2-0.3c0.3-0.4,0.6-0.8,0.9-1.2c0.2-0.2,0.5-0.4,0.8-0.6c0-0.1,0-0.2,0-0.3c-0.7-1.1-0.9-2.4-0.8-3.7
	c-2.3-2.9-1-8.3,3.7-8.3c2.3,0,3.7,1.2,4.4,2.8c0.2,0.2,0.4,0.5,0.6,0.7c0.6-0.4,1.4-0.7,2.3-0.7c-0.2-0.6,0.1-1.1,0.6-1.4
	c-1.7-1.9-3-4.2-3.8-6.9c-1.8-6.3-4.8-12-9.3-17c-8.7-9.9-20-15.8-33.9-17.3c-25.5-2.8-49.6,12.5-55.3,35.4
	c-6.6,26.2,12.4,52,41.5,56.2c5,0.7,10,0.7,15,0c11.5-1.4,20.7,2.7,26.2,12c7.9,13.2,8.6,26.7-0.2,39.6
	c-9.1,13.4-22.8,19.4-40.1,17.8c-13.2-1.3-23.4-7.5-30.5-17.7c-2.2-3.2-3.4-6.7-3.7-10.6c0.8,0,1.4-0.1,2.1-0.1c4,0,8,0,12,0
	c4.4,0,8.2,1.3,11.4,4c7.2,6,17.8,6.5,25.4,1.2c7.7-5.4,10-14.8,5.5-22.8c-1.4-2.5-3.5-3.6-6.6-3.5c-5.3,0.2-10.7,0.6-15.9,0.2
	c-18.1-1.5-33.4-8.5-45.8-20.6c-14.3-14.1-20.7-30.9-19.3-50c2.1-28.9,25.6-53.8,56.8-59.6c26.7-5,49.9,1.6,68.7,19.6
	c8.5,8.1,14.1,17.5,17,27.8c0-0.1,0.1-0.1,0.2-0.2c0.6-0.6,1.9-0.7,2.5,0c0.1,0.1,0.2,0.2,0.3,0.4c0.6-0.2,1.3-0.2,1.9-0.2
	c0.4-0.5,0.8-1,1.2-1.5c-0.1-0.1-0.2-0.1-0.2-0.2c-0.5-0.4-0.8-1-1-1.6c-0.3-0.6-0.5-1.2-0.4-1.9v-0.3c0-0.5,0.1-1,0.2-1.4
	c-4.8-0.6-5.4-7.2-1.8-9.3c-4.4-1.2-4.5-7.9-0.4-9.5c-0.6-2.8,1-6.2,4.7-6.2c0.7,0,1.4,0.1,1.9,0.4c0.6-0.5,1.3-0.9,2.2-1
	c0-0.1,0.1-0.2,0.1-0.4c0-0.3-0.1-0.6-0.1-0.9c0-0.2,0-0.4,0-0.6c-0.8-2.1-0.2-4.9,1.7-6.2C-25.2-137.3-25.2-137.4-25.2-137.5z"/>
<path class="st4" d="M-177-135.2c-1.4,2.2-4.2,3.1-6.6,2.1c-1.6-0.7-3.2-1.6-4.7-2.4c-0.3-0.2-0.6-0.6-0.6-0.9c0-3.5,0-7.1,0-10.9
	c3.8,2,7.4,3.8,10.7,5.8C-175.9-140.2-175.6-137.3-177-135.2z"/>
<path d="M1041.8,650.9c-11.2,0.2-22.5,0.3-33.7,0.4c-3.6,0-2.7-2.8-2.7-4.8c-0.1-18.3,0-36.7-0.1-55c0-3.3,0.2-6.9-0.9-10
	c-0.8-2.2-3.6-4.9-5.6-5c-2.1-0.1-5,2.2-6.2,4.3s-1.2,5.2-1.2,7.8c-0.1,19-0.2,38,0,57c0.1,4.5-1.4,5.8-5.8,5.6
	c-10.9-0.3-21.8-0.2-32.8,0c-3.8,0.1-5.4-0.9-5.3-5c0.2-22.2-0.2-44.4,0.2-66.6c0.5-30.4,26.4-51.9,54.7-44.9
	c6.9,1.7,13.5,5.8,19.3,10.2c4.2,3.1,6.5,4.7,10.6,0.2c2.5-2.8,6.3-4.3,9.5-6.5C1041.8,576.1,1041.8,613.5,1041.8,650.9z"/>
<path d="M872.2,637.6c-11.5,6.6-22.9,13.4-34.5,19.9c-9,5.1-17.5,3-22.1-5.2c-4.5-8-1.9-16.2,6.8-21.3c16.6-9.6,33.2-19.2,49.8-28.7
	C872.2,614.1,872.2,625.9,872.2,637.6z"/>
<path d="M44.1,27.9c-0.4-0.3-0.6-0.8-0.8-1.3c-0.4-1.2-1-2.2-2-3.2c-1.9-1.9-4.3-3-7.2-3.2c-5.4-0.5-10.6,2.3-11.8,6.6
	c-1.4,4.9,2.6,9.7,8.8,10.5c1.1,0.1,2.1,0.1,3.2,0c2.4-0.3,4.4,0.5,5.6,2.2c1.7,2.5,1.8,5,0,7.4c-1.9,2.5-4.9,3.6-8.5,3.3
	c-2.8-0.2-5-1.4-6.5-3.3c-0.5-0.6-0.7-1.3-0.8-2c0.2,0,0.3,0,0.4,0c0.9,0,1.7,0,2.6,0s1.7,0.2,2.4,0.7c1.5,1.1,3.8,1.2,5.4,0.2
	s2.1-2.8,1.2-4.3c-0.3-0.5-0.7-0.7-1.4-0.7c-1.1,0-2.3,0.1-3.4,0c-3.9-0.3-7.1-1.6-9.7-3.9c-3-2.6-4.4-5.8-4.1-9.4
	c0.4-5.4,5.4-10.1,12.1-11.2c5.7-0.9,10.6,0.3,14.6,3.7c1.8,1.5,2.9,3.2,3.6,5.1"/>
<path d="M41,44.5L41,44.5c0.1-0.2,0.2-0.3,0.2-0.5l0,0c-0.5,0-0.5-0.6,0-0.6h0.1c0-0.3,0-0.5,0-0.8c0,0,0,0-0.1,0
	c-0.5,0-0.5-0.6,0-0.6c-0.2-0.8-0.6-1.6-1.1-2.5c-1.2-1.7-3.1-2.5-5.6-2.2c-1.1,0.1-2.1,0.1-3.2,0c-6.2-0.8-10.2-5.6-8.8-10.5
	c1-3.4,4.4-5.9,8.5-6.5v-0.1c0-0.1,0-0.1,0-0.2c0,0,0,0,0-0.1v-0.1l0,0v-0.1v-0.1c0-0.1,0-0.1,0-0.2v-0.1l0,0v-0.1v-0.1
	c0-0.1-0.1-0.1-0.1-0.2v-0.1l0,0c0,0,0,0,0-0.1v-0.1l0,0v-0.1l0,0v-0.1l0,0v-0.1l0,0l0,0c0,0,0,0,0-0.1l0,0c0,0,0,0,0-0.1
	c0,0,0,0,0-0.1v-0.1l0,0c0,0,0,0,0-0.1l0,0v-0.1c0-0.3-0.1-0.6-0.1-0.8l0,0c0-0.1-0.1-0.1,0-0.2v-0.1c-0.4,0-0.8,0.1-1.2,0.2
	C23,17.9,18,22.6,17.5,28c-0.3,3.6,1.1,6.7,4.1,9.4c2.6,2.3,5.9,3.6,9.7,3.9c1.1,0.1,2.3,0,3.4,0c0.7,0,1.1,0.2,1.4,0.7
	c1,1.5,0.5,3.3-1.2,4.3c-1.6,1-3.9,0.9-5.4-0.2c-0.7-0.5-1.5-0.8-2.4-0.7c-0.9,0-1.7,0-2.6,0c-0.1,0-0.3,0-0.4,0
	c0.1,0.7,0.3,1.4,0.8,2c1.5,1.9,3.7,3.1,6.5,3.3c3.7,0.3,6.6-0.8,8.5-3.3c0.5-0.6,0.8-1.3,1-1.9C40.5,45,40.5,44.5,41,44.5z"/>
<path d="M36.1,20.3L36.1,20.3c0,0.1,0,0.1,0,0.1c2.1,0.5,3.8,1.5,5.2,2.9c1,1,1.6,2,2,3.2c0.2,0.5,0.4,0.9,0.8,1.3l3.6-2.5
	c-0.6-1.9-1.8-3.6-3.6-5.1c-2.4-2-5.2-3.3-8.2-3.7"/>
<path d="M35.9,16.6c0,0.1,0,0.1,0,0.2s0,0.2,0,0.3c0,0.1,0,0.1-0.1,0.2l0,0l0,0l0,0v0.1l0,0v0.1l0,0l0,0v0.1v0.1l0,0l0,0v0.1
	c0,0,0,0,0,0.1l0,0l0,0c0,0,0,0,0,0.1v0.1c0,0,0,0,0,0.1l0,0l0,0v0.1l0,0c0,0,0,0,0,0.1l0,0l0,0l0,0l0,0l0,0v0.1v0.1
	c0.1,0.4,0,0.9,0.1,1.3c0,0,0.1,0.1,0.1,0.2"/>
<path d="M743.2,703.3c10.6,6.2,20.7,11.6,30.2,17.8c6.3,4.1,7.3,12.9,3.4,19.4c-4,6.7-11.7,9.6-18.7,6.5c-4.6-2-8.9-4.8-13.2-7.3
	c-0.8-0.5-1.6-1.8-1.7-2.8C743.2,726,743.2,715.2,743.2,703.3z"/>
<line class="st9" x1="-142.4" y1="-262.7" x2="-139" y2="-64.1"/>
<line class="st9" x1="-143.4" y1="-324.5" x2="-142.4" y2="-262.7"/>
<line class="st9" x1="-144.4" y1="-390.4" x2="-143.4" y2="-324.5"/>
<image style="display:none;overflow:visible;enable-background:new    ;" width="486" height="514" xlink:href="5DDE4059.png"  transform="matrix(0.269 1.350000e-02 -1.420000e-02 0.2948 442.4222 -168.9369)">
</image>
<rect x="-2.9" y="-323.7" class="st4" width="5.8" height="112.7"/>
<polygon points="34.8,34.9 32,34.9 32,17.2 34.8,17.2 34.8,28.8 "/>
<rect x="209.9" y="-456" class="st4" width="18.2" height="352.6"/>
<rect x="-76" y="-334.2" class="st4" width="5.4" height="84.6"/>
<rect x="32.3" y="-138.6" transform="matrix(0.7752 -0.6317 0.6317 0.7752 90.2154 -4.3364)" class="st4" width="13.4" height="19.4"/>
<line class="st7" x1="101.1" y1="96.7" x2="-314.5" y2="89.6"/>
<line class="st7" x1="101.3" y1="119.6" x2="-314.2" y2="112.5"/>
<line class="st7" x1="101.3" y1="129.3" x2="-314.2" y2="122.2"/>
<line class="st7" x1="101.4" y1="138.2" x2="-314.1" y2="131.1"/>
<line class="st7" x1="101.3" y1="147.2" x2="-314.2" y2="140.1"/>
<line class="st7" x1="101.3" y1="108.1" x2="-314.2" y2="101"/>
<rect x="-130.6" y="94.3" class="st4" width="89.2" height="9.7"/>
<rect x="-21.9" y="94.8" class="st4" width="99.8" height="9.8"/>
<rect x="-110" y="116.5" class="st4" width="68.5" height="9.2"/>
<rect x="-22.9" y="116" class="st4" width="41.7" height="9.7"/>
<rect x="-95.5" y="135.3" class="st4" width="54.1" height="8.3"/>
<rect x="-22.9" y="135.3" class="st4" width="40.2" height="8.3"/>
<path class="st10" d="M-67.9,67.7c-15,4.5-35.8,8.8-60.5,8.1c-25-0.7-45.7-6.3-60.4-11.7"/>
<path class="st10" d="M-72.8,49.2c-12.1,3.6-30.1,7.6-52.9,7.7c-0.9,0-3.5,0-6.7-0.1c-13.7-0.4-33.7-2.7-58.8-11.2"/>
<path class="st10" d="M-64.6,83c-13,5.8-33,12.7-57.8,13.2c-29.7,0.6-53.1-8.1-67-14.7"/>
<path class="st7" d="M-128.4,89.8"/>
<g id="Layer_8" class="st0">
</g>
<g id="Layer_9" class="st0">
</g>
<path class="st7" d="M-128.2,116.5"/>
<rect x="-977.8" y="323.6" class="st11" width="218.1" height="43.9"/>
<text transform="matrix(1.0952 0 0 1 -963.1118 353.4323)" style="font-family:'CooperBlack'; font-size:23.3871px;">SMART FIXLY</text>
<rect x="268.6" y="-403.9" class="st12" width="18.8" height="328.9"/>
<g class="st0">
	
		<image style="display:inline;overflow:visible;enable-background:new    ;" width="298" height="703" xlink:href="5DDE405F.png"  transform="matrix(8.854329e-02 0 0 8.854329e-02 462.6258 -46.6053)">
	</image>
	<path class="st1" d="M452.6,13.5v-58.1c0-7.3,5.9-13.2,13.2-13.2h20c7.3,0,13.2,5.9,13.2,13.2v58.1c0,7.3-5.9,13.2-13.2,13.2h-20
		C458.6,26.7,452.6,20.8,452.6,13.5z"/>
	<path class="st1" d="M475.9-47.8L475.9-47.8c7.3,0,13.2,5.9,13.2,13.2V3.5c0,7.3-5.9,13.2-13.2,13.2l0,0c-7.3,0-13.2-5.9-13.2-13.2
		v-38.1C462.6-41.9,468.6-47.8,475.9-47.8z"/>
</g>
<path class="st4" d="M-137.4-50.2h-0.3c-7.4,0.5-14.5-11.9-15.8-27.7c0-0.3-0.1-0.7-0.1-1c-1.3-15.8,3.7-29,11.1-29.5
	c0.1,0,0.2,0,0.3,0c7.4-0.5,10.1,12.2,11.4,28c0,0.3,0.1,0.7,0.1,1C-129.5-63.6-130-50.7-137.4-50.2z M-150.8-75.7
	c0.5,2.5,0.9,5,1.5,7.4c1.3,5.5,3.5,10.4,6.7,14.8c3.9,0.1,5.3-3,3.4-6.2c-3.5-6-5.6-12.6-5.5-20c0-4.9,1-9.5,3.1-13.6
	c1.1-2.3,2.5-4.4,3.8-6.6c0.9-1.6,0.6-3.7-0.6-5c-1.2-1.2-2.9-1.2-3.9,0.2c-1.2,1.6-2.3,3.1-3.3,4.9
	C-149.4-92.6-151.5-84.7-150.8-75.7z"/>
<path d="M23.8,29.4c-0.1-1.7,0.3-3.2,1.1-4.5c0.2-0.3,0.4-0.6,0.7-0.9c0.2-0.3,0.6-0.3,0.8,0c0.3,0.2,0.3,0.6,0.1,0.9
	c-0.3,0.4-0.6,0.8-0.8,1.2c-0.4,0.8-0.6,1.6-0.7,2.6c0,1.4,0.4,2.6,1.2,3.7c0.4,0.6,0.1,1.2-0.7,1.2c-0.7-0.8-1.1-1.8-1.4-2.8
	C24,30.4,23.9,29.9,23.8,29.4z"/>
<g class="st0">
	<g class="st3">
		<path d="M-213.6-147.7c3.2,0,3.2-5,0-5S-216.9-147.7-213.6-147.7L-213.6-147.7z"/>
	</g>
</g>
<g class="st0">
	<g class="st3">
		<path d="M-221.9-157.9c3.2,0,3.2-5,0-5S-225-157.9-221.9-157.9L-221.9-157.9z"/>
	</g>
</g>
<path d="M39.3,16.2c0-0.1,0-0.1,0.1-0.2c0.5-0.8,1.1-1.6,1.6-2.3c0.1-0.2,0.2-0.3,0.3-0.5c0.1-0.1,0.3-0.2,0.4-0.1
	c0.2,0,0.3,0.2,0.3,0.3s-0.1,0.2-0.1,0.3c-0.6,0.9-1.2,1.8-1.8,2.7c-0.1,0.2-0.3,0.3-0.6,0.2C39.5,16.5,39.4,16.3,39.3,16.2z"/>
<path class="st4" d="M-14.1-155.5c-0.7,1.3-2,2.3-3.8,2.4c-0.4,0.3-0.9,0.5-1.5,0.6c-0.6,0.3-1.2,0.4-1.9,0.4h-0.2
	c-0.2,0.1-0.5,0.1-0.7,0.2c-0.6,0.3-1.2,0.6-2,0.6c-0.1,0-0.1,0.1-0.2,0.1c-0.2,0.1-0.3,0.2-0.5,0.3c-0.6,1.7-2.1,3-4.5,3
	c-0.1,0-0.2,0-0.3,0v7.5h12.6c-0.6-2.4,0.4-5.2,3-6.1c0.5-1.9,2-3.6,4.7-3.6c0.7,0,1.3,0.1,1.9,0.3v-5.8h-6.6V-155.5z M-9.4-151.1
	c-1.5,0.9-3,1.8-4.5,2.6c-1.6,0.9-3.2,1.9-4.8,2.8c-2,1.2-4.1,2.4-6.1,3.6c-0.5,0.3-1.1,0.7-1.7,0.6c-1.3-0.1-2.1-1.1-1.8-2.3
	c0.1-0.4,0.4-0.8,0.8-1c1.4-0.9,2.9-1.7,4.3-2.5c1.3-0.8,2.7-1.6,4-2.3c1.6-0.9,3.2-1.9,4.8-2.8c1-0.6,2-1.2,3-1.7
	c0.3-0.2,0.7-0.2,1-0.3c0.9,0.1,1.5,0.5,1.8,1.2C-8.4-152.5-8.7-151.5-9.4-151.1z"/>
<path d="M49.4,17.9c0.2,0,0.3,0.1,0.4,0.2c0.1,0.1,0,0.3-0.2,0.4c-0.3,0.2-0.6,0.3-1,0.5c-0.3,0.2-0.7,0.4-1,0.5
	c-0.4,0.2-0.9,0.4-1.3,0.7c-0.1,0.1-0.2,0.1-0.4,0.1c-0.3,0-0.4-0.2-0.4-0.4c0-0.1,0.1-0.1,0.2-0.2c0.3-0.2,0.6-0.3,0.9-0.5
	c0.3-0.1,0.6-0.3,0.9-0.4c0.3-0.2,0.7-0.4,1-0.5c0.2-0.1,0.4-0.2,0.6-0.3C49.3,17.9,49.3,17.9,49.4,17.9z"/>
<path class="st4" d="M-93.6-174.2h-3.5v21.5c1.5,0,2.9,0,4.4,0v-19.2C-93.2-172.5-93.5-173.3-93.6-174.2z M-94.9-152.8
	c-1.1,0-1.9-0.7-1.9-1.9c0-2.8,0-5.6,0-8.5s0-5.7,0-8.6c0-0.9,0.5-1.5,1.4-1.8c0.8-0.2,1.8,0.1,2.1,0.8c0.2,0.3,0.3,0.7,0.3,1.1
	c0,5.7,0,11.4,0,17.1C-93-153.5-93.9-152.8-94.9-152.8z"/>
<path d="M32.9,12.5c0-0.5,0-1.1,0-1.6c0-0.2,0.1-0.3,0.3-0.3s0.4,0,0.4,0.1s0.1,0.1,0.1,0.2c0,1.1,0,2.1,0,3.2
	c0,0.2-0.2,0.4-0.4,0.4s-0.4-0.1-0.4-0.4C32.9,13.5,32.9,13,32.9,12.5z"/>
<path class="st4" d="M-153.9-164.4c5.5,0,11,0,16.5,0c0,6.8,0,13.5,0,20.2c-5.5,0-11,0-16.5,0C-153.9-151-153.9-157.7-153.9-164.4z
	 M-140.6-145.2c1,0,1.7-0.3,2-0.9c0.4-0.7,0.3-1.3-0.2-2c-1-1.4-2-2.9-3-4.3c-2.2-3.1-4.5-6.3-6.7-9.4c-0.5-0.6-0.9-1.3-1.8-1.5
	c-0.8-0.1-1.5,0.1-2,0.8c-0.5,0.6-0.5,1.3,0,2c1.6,2.3,3.2,4.6,4.9,6.8c1.8,2.5,3.6,5,5.3,7.5C-141.6-145.5-141.1-145.2-140.6-145.2
	z"/>
<path d="M25.9,16.4c-0.1,0-0.2-0.1-0.3-0.2c-0.4-0.5-0.7-0.9-1.1-1.4c-0.3-0.4-0.7-0.9-1-1.3c-0.1-0.1-0.1-0.3,0-0.4
	c0.1-0.1,0.3-0.2,0.4-0.1c0.2,0,0.3,0.1,0.4,0.3c0.5,0.6,1,1.2,1.4,1.8c0.2,0.3,0.4,0.5,0.6,0.8c0.1,0.1,0.1,0.2,0,0.4
	C26.3,16.4,26.1,16.4,25.9,16.4z"/>
<path class="st4" d="M-169.8-121.2c-7.1,0-14.1,0-21.2,0c0-5.5,0-11,0-16.5c7.1,0,14.1,0,21.2,0
	C-169.8-132.2-169.8-126.7-169.8-121.2z M-187.8-136.6c-0.3,0.1-0.5,0.1-0.8,0.2c-0.8,0.3-1.4,1.3-1.1,2.1c0.2,0.6,0.6,0.9,1,1.2
	c1.5,1.1,3,2.2,4.5,3.2c1.8,1.3,3.5,2.5,5.3,3.8c1.5,1.1,3,2.1,4.5,3.2c0.6,0.4,1.2,0.6,1.9,0.5c0.8-0.1,1.3-0.6,1.5-1.4
	c0.2-0.6-0.1-1.4-0.7-1.8c-0.8-0.6-1.6-1.2-2.4-1.8c-2-1.5-4.1-3-6.2-4.5c-1.8-1.3-3.6-2.7-5.5-4
	C-186.2-136-186.9-136.6-187.8-136.6z"/>
<path d="M15.9,18.1c0.2,0,0.3,0.1,0.4,0.2c0.4,0.2,0.8,0.5,1.2,0.7c0.4,0.3,0.9,0.6,1.3,0.8c0.2,0.1,0.3,0.2,0.5,0.3
	c0.1,0.1,0.2,0.2,0.1,0.3c0,0.1-0.1,0.2-0.3,0.3c-0.1,0-0.3,0-0.4-0.1c-0.3-0.2-0.6-0.4-1-0.6s-0.7-0.5-1.1-0.7
	c-0.3-0.2-0.6-0.4-1-0.6c-0.1-0.1-0.2-0.1-0.2-0.2c-0.1-0.1,0.1-0.3,0.2-0.4C15.8,18.1,15.9,18.1,15.9,18.1z"/>
<line class="st7" x1="135.9" y1="-371.2" x2="-394.6" y2="-369"/>
<path class="st4" d="M130.4-526.7c-55.9,0-111.8,0-167.7,0c0-55.9,0-111.8,0-167.7c55.9,0,111.8,0,167.7,0
	C130.4-638.5,130.4-582.6,130.4-526.7z M21.6-653c-0.2-0.2-0.3-0.3-0.4-0.4c-1.5-1.5-3.1-2.9-4.6-4.4c-2-1.8-4.4-1.9-6.4-0.1
	c-1.8,1.6-3.4,3.4-5.1,5.1c-0.4,0.4-0.7,0.8-1,1.3c-0.8,1.4-0.6,3.6,0.5,4.7c1.7,1.8,3.5,3.6,5.2,5.4c-0.7,1.1-1.3,2.2-2,3.2
	c-2.3,4-3.7,8.4-4.8,12.9c-0.1,0.5-0.3,0.7-0.8,0.7c-2.1,0-4.1,0.2-6.2,0.1c-2.5-0.1-4.7,2.2-4.6,4.6c0.1,2.4,0,4.8,0,7.2
	c0,2.3,1.5,4.1,3.8,4.3c2.1,0.2,4.2,0.2,6.3,0.2c0.9,0,1.3,0.1,1.5,1.1c1,5,3,9.5,5.6,13.9c0.3,0.6,0.7,1.2,1,1.8
	c-0.2,0.2-0.4,0.4-0.6,0.6c-1.6,1.7-3.2,3.4-4.7,5.2c-1.1,1.3-1.2,2.9-0.4,4.2c2,3,4.6,5.6,7.6,7.6c0.1,0.1,0.2,0.1,0.3,0.1
	c1.2,0.3,2.3,0.5,3.3-0.4c1.9-1.7,3.8-3.3,5.6-5c0.4-0.4,0.7-0.4,1.2-0.1c2.6,1.4,5.2,2.7,7.8,4c0.3,0.2,0.7,0.3,1.2,0.4
	c0.1-0.5,0.1-0.9,0.1-1.4c0-4.2,0-8.4,0.1-12.6c0-0.6-0.2-0.9-0.7-1.1c-3.3-2-5.9-4.8-8.6-7.5c-1.9-1.9-3-4.3-4.1-6.7
	c-2.3-5.3-2.9-10.9-2.2-16.6c0.6-4.8,2.4-9.3,5.1-13.3c2.2-3.2,5-6,8.2-8.1c4.4-3,9.3-4.7,14.7-5c3.6-0.2,7.2-0.1,10.7,0.8
	c5.2,1.3,9.5,4,13.3,7.7c5.2,5.1,8.2,11.3,9.2,18.6c0.6,4.5-0.1,8.8-1.3,13.1c-0.9,3.1-2.4,6-4.4,8.5c-2.8,3.6-6.1,6.6-10,8.9
	c-0.4,0.2-0.7,0.4-0.7,1c0,3.8,0,7.6,0,11.4c0,0.8,0.2,1.6,0.3,2.5c0.6-0.2,1.1-0.4,1.6-0.6c2.7-1.4,5.4-2.8,8-4.3
	c0.6-0.3,0.9-0.4,1.4,0.1c1.7,1.6,3.4,3.2,5.2,4.8c1.6,1.3,3.4,1.4,4.9,0c2.3-2.1,4.3-4.4,6.5-6.6c0.1-0.1,0.1-0.2,0.2-0.3
	c0.9-1.4,0.7-3.5-0.5-4.7c-1.5-1.6-3.1-3.3-4.6-4.9c-0.5-0.5-0.5-0.8-0.2-1.4c3-4.9,5.3-10.2,6.3-15.9c2.2,0,4.3,0,6.4,0
	c2.6,0,4.6-1.2,4.8-3.4c0.3-3.3,0.2-6.6,0-9.9c-0.1-1.5-1.2-2.6-2.8-2.9c-1.3-0.2-2.6-0.2-4-0.3c-1.5-0.1-3-0.1-4.5-0.1
	c-1.3-6-3.6-11.4-6.9-16.4c0.2-0.2,0.4-0.4,0.6-0.6c1.5-1.6,3.2-3.2,4.6-4.9c1.6-1.9,1.6-3.8,0-5.7c-1.8-2-3.8-4-5.8-5.8
	c-1.6-1.5-3.5-1.5-5.3-0.1c-1.5,1.2-2.9,2.6-4.3,3.9c-0.6,0.6-1.1,1.2-1.6,1.8c-1.2-0.7-2-1.4-3-1.9c-4-2.3-8.3-3.8-12.8-4.9
	c-0.6-0.2-0.8-0.4-0.8-1c0-2.2-0.2-4.5-0.2-6.7c-0.1-2.1-1.8-3.9-3.8-4c-2.4-0.1-4.8-0.2-7.2-0.1c-1.5,0-2.9,0.3-4,1.5
	c-1.5,1.7-1.3,3.8-1.4,5.8c0,1.1,0,2.3,0.1,3.5c0,0.8-0.3,1.2-1.1,1.3c-1.6,0.4-3.1,0.8-4.6,1.3C28.6-657,25.1-655.2,21.6-653z
	 M37.9-631.7c-0.7,0.4-1.2,0.6-1.7,0.9c-4.8,3.6-7.5,8.4-7.5,14.5c0,3.8,0.9,7.3,3.2,10.3c1.3,1.7,2.8,3.1,4.1,4.7
	c0.7,0.8,1.3,1.8,1.5,2.8c0.4,1.9,0.6,3.8,0.7,5.7c0.1,6.1,0.2,12.3,0.2,18.4c0.1,12,0.2,23.9,0.3,35.9c0,2.6,0.5,5,2.8,6.7
	c2.3,1.6,4.7,2.2,7.2,1.2c2.2-0.9,4.2-2.3,4.8-4.9c0.3-1.4,0.4-2.9,0.4-4.4c0.1-2.6,0-5.2,0-7.9c0-8.5,0-16.9,0-25.4
	c0-7.4,0-14.9,0.2-22.3c0-1.9,0.6-3.6,2-5.1c1.9-1.9,3.7-4,5.3-6.1c3-4.1,3.5-8.8,2.4-13.7c-1-4.9-3.8-8.7-8.2-11.3
	c-0.5-0.3-1-0.4-1.6-0.6c-0.1,1.2-0.2,2.1-0.2,3c-0.1,3-0.1,5.9-0.2,8.9c0,2.2-2.2,4.6-4.4,4.8c-2,0.2-4.1,0.3-6.1,0.1
	c-3-0.2-5.1-2.4-5.2-5.1c-0.1-3-0.1-6-0.2-9C38.1-630,37.9-630.7,37.9-631.7z"/>
<path class="st13" d="M31.6,16.6c0.2-0.1,0.5-0.2,0.8-0.3c0.1,0,0.2-0.1,0.3-0.1s0.1,0,0.1-0.1s0-0.1,0-0.2c0-0.1,0-0.2,0.1-0.3
	s0.2-0.1,0.3-0.1c0.2,0,0.3,0,0.5,0c0.1,0,0.3,0.1,0.3,0.2c0,0.1,0,0.3,0,0.4c0,0,0,0.1,0.1,0.1c0.3,0.1,0.6,0.1,0.9,0.3
	c0.1,0,0.1,0.1,0.2,0.1l0.1-0.1c0.1-0.1,0.2-0.1,0.3-0.2s0.3-0.1,0.4,0c0.1,0.1,0.3,0.2,0.4,0.3c0.1,0.1,0.1,0.2,0,0.3
	c-0.1,0.1-0.2,0.2-0.3,0.3l0,0c0.2,0.3,0.4,0.6,0.5,0.9c0.1,0,0.2,0,0.3,0s0.2,0,0.3,0s0.2,0.1,0.2,0.2c0,0.2,0,0.4,0,0.6
	c0,0.1-0.1,0.2-0.3,0.2c-0.1,0-0.3,0-0.4,0c-0.1,0.3-0.2,0.6-0.4,0.9v0.1c0.1,0.1,0.2,0.2,0.3,0.3c0.1,0.1,0.1,0.2,0,0.3l0,0
	c-0.1,0.1-0.3,0.3-0.5,0.4c-0.1,0.1-0.2,0.1-0.3,0s-0.3-0.2-0.4-0.3h-0.1c-0.2,0.1-0.4,0.2-0.6,0.2h-0.1c0-0.1,0-0.1,0-0.1
	c0-0.2,0-0.4,0-0.6c0,0,0,0,0-0.1c0.3-0.1,0.5-0.3,0.7-0.5c0.1-0.1,0.2-0.3,0.3-0.5s0.1-0.5,0.1-0.7c-0.1-0.4-0.3-0.8-0.6-1
	s-0.6-0.4-0.9-0.4c-0.3-0.1-0.5-0.1-0.7,0c-0.4,0-0.7,0.1-1,0.3c-0.2,0.1-0.4,0.3-0.6,0.5c-0.2,0.2-0.3,0.5-0.4,0.7
	c0,0.3,0,0.6,0.1,0.9c0.1,0.1,0.1,0.3,0.3,0.4s0.4,0.3,0.6,0.4c0,0,0,0,0,0.1c0,0.2,0,0.5,0,0.7c0,0,0,0,0,0.1h-0.1
	C32,21,31.8,21,31.6,20.9c0,0,0,0-0.1,0c-0.1,0.1-0.3,0.2-0.4,0.3c-0.1,0.1-0.1,0-0.2,0l0,0c-0.2-0.1-0.4-0.3-0.5-0.4s0-0.2,0-0.2
	c0.1-0.1,0.2-0.2,0.3-0.3l0,0c0,0,0-0.1-0.1-0.1c-0.2-0.2-0.3-0.5-0.4-0.8c0-0.1,0-0.1-0.1-0.1s-0.3,0-0.4,0c-0.2,0-0.3-0.1-0.3-0.2
	s0-0.3,0-0.4s0.1-0.3,0.3-0.3c0.1,0,0.3,0,0.4,0c0,0,0,0,0.1,0c0.1-0.3,0.2-0.5,0.3-0.7c0-0.1,0.1-0.1,0.1-0.2
	c-0.1-0.1-0.2-0.2-0.4-0.3c-0.1-0.1-0.1-0.2,0-0.3c0,0,0-0.1,0.1-0.1c0.1-0.1,0.2-0.2,0.4-0.3c0.1-0.1,0.3-0.1,0.4,0
	s0.2,0.2,0.3,0.2C31.6,16.6,31.6,16.6,31.6,16.6z"/>
<path class="st8" d="M32.8,20.9c0,0,0,1.3,0,1.9c0,0.1,0,0.3,0.2,0.4c0.1,0.1,0.3,0.1,0.5,0.1c0.1,0,0.3-0.1,0.3-0.3
	c0-0.1,0-0.1,0-0.2s0-0.3,0-0.4c0-0.4,0-0.9,0-1.3s0-0.8,0-1.2c0-0.1,0-0.2,0.1-0.3c0.1-0.1,0.2-0.2,0.3-0.3
	c0.2-0.2,0.2-0.5,0.2-0.7c-0.1-0.3-0.3-0.5-0.5-0.6h-0.1c0,0.1,0,0.1,0,0.2s0,0.3,0,0.5c0,0.1-0.1,0.2-0.3,0.3c-0.1,0-0.3,0-0.4,0
	c-0.2,0-0.3-0.1-0.3-0.3c0-0.2,0-0.3,0-0.5v-0.1c0,0-0.1,0-0.1,0.1c-0.3,0.2-0.5,0.4-0.5,0.8c0,0.2,0.1,0.4,0.2,0.5
	c0.1,0.1,0.2,0.2,0.3,0.2l0.1,0.1 M33.3,23c-0.1,0-0.2-0.1-0.2-0.2s0.1-0.2,0.2-0.2c0.1,0,0.2,0.1,0.2,0.2C33.6,23,33.5,23,33.3,23z
	"/>
<path class="st4" d="M107.4-560.5c1.9,0,3.5,1.4,3.5,3.3c0,2-1.6,3.5-3.7,3.5c-1.6,0-3.3-1.7-3.3-3.2
	C103.9-559.2,105.3-560.5,107.4-560.5z"/>
<path d="M34.9,31.5L34.9,31.5c-0.1-1.1-0.1-2.2-0.1-3.3c0.1,0,0.2,0,0.3,0c1.6,0,3.1,0,4.6,0c0.4,0,0.7,0,1.1,0c0.1,0,0.2,0,0.1,0.1
	c0,0.1,0,0.2-0.1,0.4c-0.3,1.5-1.9,2.7-3.7,2.7C36.4,31.4,35.7,31.4,34.9,31.5C35,31.5,35,31.5,34.9,31.5z"/>
<path class="st4" d="M370.4,255.6c2.9-1,5.8-2.8,8.8-2.8c34-0.5,68.1,0.3,102-1.2c86.9-3.8,163.5-74.1,175.7-160
	c1-7.2,1.7-14.4,2.9-21.5c0.9-5.8-1.3-7.7-7.1-7.7c-17.7,0.2-35.5,0-53.2,0c-73,0-146,0.1-219,0c-5.1,0-10.2-1.2-15.4-1.8
	c2.3-0.6,4.7-1.7,7-1.7c99-0.1,198-0.1,297.1-0.1l0,0c0,108.7-88.1,196.8-196.8,196.8H370.4L370.4,255.6z"/>
<ellipse class="st14" cx="32.3" cy="32.8" rx="30.3" ry="26.7"/>
</svg>
