<?xml version="1.0" encoding="utf-8"?>
<!-- Generator: Adobe Illustrator 24.3.0, SVG Export Plug-In . SVG Version: 6.00 Build 0)  -->
<svg version="1.1" id="Layer_1" xmlns="http://www.w3.org/2000/svg" xmlns:xlink="http://www.w3.org/1999/xlink" x="0px" y="0px"
	 viewBox="0 0 841.9 595.3" style="enable-background:new 0 0 841.9 595.3;" xml:space="preserve">
<style type="text/css">
	.st0{display:none;}
	.st1{display:inline;fill:none;}
	.st2{display:inline;fill:#FFFFFF;}
	.st3{display:inline;}
	.st4{display:none;fill:#FFFFFF;}
	.st5{display:none;fill:none;}
	.st6{display:none;stroke:#000000;stroke-miterlimit:10;}
	.st7{display:none;fill:none;stroke:#000000;stroke-miterlimit:10;}
	.st8{fill:#FFFFFF;}
	.st9{display:none;fill:none;stroke:#FFFFFF;stroke-miterlimit:10;}
	.st10{display:none;fill:none;stroke:#000000;stroke-width:3;stroke-miterlimit:10;}
	.st11{fill:none;}
	.st12{display:none;fill:#FFFFFF;stroke:#FFFFFF;stroke-width:1.3339;stroke-miterlimit:10;}
	.st13{stroke:#FFFFFF;stroke-width:1.6997;stroke-miterlimit:10;}
</style>
<g class="st0">
	<line class="st1" x1="-347.4" y1="146.5" x2="-347.4" y2="149.5"/>
	<line class="st1" x1="-347.4" y1="124.7" x2="-347.4" y2="135"/>
	<line class="st1" x1="-347.4" y1="119.6" x2="-347.4" y2="124.7"/>
	<path class="st2" d="M-339.8,118.1c-2.5-1.3-5.1-2.4-7.6-3.7v5.1"/>
	<path class="st2" d="M-341.5,72.6c5.4,1.7,10.5,4.1,15.7,6.6c5.8,2.9,0.7,11.5-5,8.6c-3.4-1.7-6.9-3.4-10.5-4.8
		c1.6,1.1,3.1,2.2,4.7,3.3c4.5,1.4,9.2,2.6,13.1,5.1c1.5,0.9,2.2,2.3,2.4,3.8c1.4,0.6,2.7,1,4.1,1.4c2.9,0.3,5.7,0.3,8.6,0.3
		c5.5,0,7,8.9,1.3,9.8c-0.7,0.1-1.4,0.2-2.1,0.3c1.2,1.5,2.4,3.1,3.5,4.7c3.1,4.5-2.8,8.8-6.8,6.8c-1.6-0.7-3.1-1.5-4.7-2.4
		c-0.2,0.3-0.4,0.5-0.6,0.7c-4.5,4.5-8.7,5.7-13.6,4.7c-2.6-0.6-5.3-1.7-8.5-3.3"/>
	<path class="st2" d="M-138.3,72.6c-67.8,0-135.5,0-203.2,0"/>
	<path class="st2" d="M-122.4,72.6c-0.8,3.4-1.6,6.8-2.2,10.3c1.3,0.4,2.4,1.5,2.7,3.4c0.4,2.3,0.4,4.5,0.3,6.6
		c0,0.1,0.1,0.1,0.1,0.2c19.5,2.6,38.2,7.9,56,16.2c7.2,3.3,14,7.5,20.9,11.5c1.2,0.7,2.4,2.6,2.4,3.9c0.1,21.6,0.1,43.1,0,64.7
		c0,0.2-0.1,0.5-0.4,1.3c-8-11.5-17.6-20.7-28.5-28.4c-15.2-10.6-31.8-17.6-49.7-21.1c-0.4,1.1-1.2,2.1-2.4,2.7
		c-0.6,0.7-1.4,1.2-2.2,1.5c-0.8,0.7-2,1-3.2,1c-0.9,0.4-1.9,0.5-2.9,0.4c-1.1,2.1-2.9,2.7-4.6,2.4c0,1,0,2-0.1,3
		c-0.1,5.6-6.6,6.1-9.1,2.4c-1.7-0.2-3.3-1.4-4-3.5c-0.1-0.2-0.1-0.4-0.1-0.5c-0.1,1.5-0.3,3-0.5,4.4c-1.1,6-9.3,3.8-9.8-1.3
		c-0.3-3-0.5-6-0.6-9c-0.9,2.9-4.4,3.7-7,2.5c-2.1,1.2-5.2,0.9-6.9-1.2c-0.2,0-0.4,0-0.6,0c-2.3,0-3.8-1.3-4.4-3
		c-0.2-0.4-0.4-0.9-0.4-1.4c-7.6,1.7-15.1,4.2-22.4,7.4c-10,4.4-19.6,10.3-28.6,16.6c-11.7,8.2-20.9,19.1-28.3,31.5
		c-7.6,12.7-12.3,26.2-13.4,41c-0.3,4-1.7,8-1.1,11.8c1.4,9.9,2.7,20,5.7,29.5c4.9,15.8,14.2,29.4,26,40.8
		c20.2,19.5,44.6,30.9,72.4,35.1c13.7,2.1,27.2,1.5,40.9,0c18.9-2.1,36.1,2.7,50.5,15.5c6.7,6,11.8,13.4,15.8,21.6
		c5.7,11.4,9.2,23.4,9.9,36.1c0.8,12.4-2.5,24.1-7.2,35.3c-2.8,6.8-7.2,13-11.7,18.9c-7.5,9.6-16.8,17.3-27.4,23.3
		c-22.1,12.4-45.9,16.6-71,13.4c-15.7-2-30.2-7.4-43.7-15.6c-11.3-7-20.8-15.9-28.3-26.7c-4.5-6.5-7.6-14-8.4-22.1
		c-0.1-0.8,1.2-2.5,1.9-2.4c15.3,0.6,30.8-2.2,45.9,1.9c5.2,1.4,10.3,4.2,14.6,7.5c14,10.8,29.4,13.8,46.3,10
		c12.7-2.8,23-9.9,29.8-20.9c5.6-9,6.5-19.4,3.8-29.6c-1.2-4.7-3.9-9.1-6.2-13.4c-2-3.7-5.8-5.1-9.8-5.2c-4.2-0.1-8.5,0.2-12.8,0.6
		c-25.6,2.1-50.5-1.2-74.8-9c-15.5-5-30.2-12-43.8-20.8c-10.7-7-20.8-15-29.6-24.5c-7.4-8-14.9-16-20-25.8
		c-4.3-8.1-9-16.1-12.3-24.6c-3.3-8.6-5-17.7-7.5-26.6c-4-14.1-3.4-28.5-1.4-42.6c2-14.9,5.8-29.6,13-43c5.4-10.1,11.6-20,18.7-29
		c9.9-12.6,21.9-23.3,35.2-32.5c18.2-12.6,38-21.5,59.4-27.1c6.4-1.7,12.8-3,19.2-4c0.1-1,0.4-1.9,0.9-2.7c0.4-0.8,1.1-1.5,1.8-2.1
		c0.9-1.4,2.5-2,4.1-2c1.1-1.4,2.8-2.2,4.7-2c1.9,0.2,3.5,1.7,4.1,3.5c0.9,0.1,1.9,0.4,2.6,1c0.2-0.7,0.3-1.4,0.5-2.1
		c1.2-4.2,8.2-5,9.5-0.6c0.1-0.7,0.2-1.4,0.3-2.2c0.1-0.8,0.2-1.6,0.3-2.4c0.5-3.1,3.8-4.1,6.4-3.3c1.2-1.9,3.4-2.5,5.4-2
		c0,0,0.1,0,0.1-0.1c0.3-1.4,0.6-2.9,1-4.3"/>
	<path class="st2" d="M-41.3,72.6c-27.1,0-54.1,0-81.2,0"/>
	<line class="st1" x1="-41.3" y1="532.2" x2="-41.3" y2="72.6"/>
	<line class="st1" x1="-347.4" y1="532.2" x2="-41.3" y2="532.2"/>
	<line class="st1" x1="-347.4" y1="433.7" x2="-347.4" y2="532.2"/>
	<line class="st1" x1="-347.4" y1="338" x2="-347.4" y2="433.7"/>
	<line class="st1" x1="-347.4" y1="149.5" x2="-347.4" y2="338"/>
	<path class="st3" d="M-52,428.7c-0.8-12.8-4.2-24.7-9.9-36.1C-66,384.4-71,377-77.8,371c-14.4-12.8-31.6-17.7-50.5-15.5
		c-13.7,1.5-27.2,2.1-40.9,0c-27.8-4.2-52.2-15.6-72.4-35.1c-11.8-11.4-21.1-25-26-40.8c0,0-6.4-16.6-5.7-29.5
		c0.1-1.6,0.2-3.4,0.2-3.4s0.3-4.3,0.9-8.4c3.2-23.3,13.4-41,13.4-41c7.4-12.4,16.6-23.3,28.3-31.5c9-6.3,18.5-12.2,28.6-16.6
		c7.3-3.2,14.8-5.6,22.4-7.4c-0.1-0.5-0.1-1.1-0.1-1.6c0-0.2,0-0.5,0-0.7c-0.1-0.7-0.1-1.4,0-2c0-0.2,0-0.4,0-0.6
		c-0.1-0.7-0.1-1.5,0-2.2c-0.1-0.5-0.1-0.9,0-1.4c-0.2-0.7-0.1-1.5,0-2.2c-0.1-0.8-0.1-1.6,0.1-2.4c-0.3-0.9-0.3-2-0.1-2.9
		c-0.2-0.8-0.3-1.7-0.1-2.5c0-0.3,0-0.6,0-0.9c-0.1-0.7-0.2-1.5,0-2.2c-0.1-0.6-0.1-1.3,0-1.9c-0.1-0.5-0.1-1,0-1.5
		c-0.2-0.8-0.2-1.8,0-2.6c-0.1-0.4-0.1-0.8-0.1-1.2c0-0.3,0-0.7,0-1c0-0.4,0-0.8,0.1-1.3c0-0.3,0-0.5,0-0.8c0-0.1,0-0.1,0-0.2
		c-0.2-0.8-0.2-1.7-0.1-2.5c0,0,0,0,0-0.1c-0.1-0.5-0.1-1-0.1-1.5c-0.1-0.7-0.2-1.5-0.1-2.2c-0.1-0.6-0.1-1.2,0-1.8
		c0-0.4,0-0.9,0.1-1.3c-0.1-0.4-0.1-0.7-0.1-1.1c-0.3-1-0.2-2.1,0-3.1c-0.1-0.3-0.1-0.7,0-1c-0.1-0.4-0.1-0.9-0.1-1.4
		c-6.4,1-12.9,2.3-19.2,4c-21.4,5.6-41.2,14.5-59.4,27.1c-13.3,9.2-25.3,19.8-35.2,32.5c-7.1,9-13.2,18.9-18.7,29
		c-7.2,13.4-10.9,28.1-13,43c-1.9,14.1-2.6,28.5,1.4,42.6c2.5,8.9,4.2,18,7.5,26.6c3.3,8.5,8,16.5,12.3,24.6
		c5.1,9.8,12.6,17.7,20,25.8c8.8,9.5,18.9,17.5,29.6,24.5c13.6,8.9,28.2,15.9,43.8,20.8c24.4,7.8,49.3,11.1,74.8,9
		c4.2-0.3,8.5-0.6,12.8-0.6c4,0.1,7.8,1.5,9.8,5.2c2.4,4.3,5,8.7,6.2,13.4c2.7,10.2,1.8,20.6-3.8,29.6c-6.9,11-17.1,18.1-29.8,20.9
		c-16.9,3.8-32.4,0.8-46.3-10c-4.3-3.3-9.4-6.1-14.6-7.5c-15.1-4.1-30.6-1.3-45.9-1.9c-0.6,0-1.9,1.6-1.9,2.4
		c0.8,8.1,3.8,15.6,8.4,22.1c7.5,10.8,17,19.7,28.3,26.7c13.5,8.3,28,13.6,43.7,15.6c25.1,3.3,48.8-0.9,71-13.4
		c10.6-6,19.9-13.7,27.4-23.3c4.5-5.8,8.9-12.1,11.7-18.9C-54.5,452.8-51.2,441.1-52,428.7z"/>
	<path class="st3" d="M-42.1,124.7c0-1.3-1.2-3.2-2.4-3.9c-6.9-4-13.7-8.2-20.9-11.5c-17.8-8.3-36.6-13.6-56-16.2
		c0.6,1.2,0.7,2.6,0.4,3.9c0,0.1,0,0.2,0,0.3c0,0.1,0,0.2,0,0.3c0.1,0.4,0.2,0.8,0.2,1.2c0.1,0.3,0.1,0.7,0.1,1v0.2
		c0,0.1,0,0.1,0,0.2c0,0.2,0,0.3,0,0.5v0.2c0,0.1,0,0.2,0,0.3c0.1,0.4,0.2,0.9,0.2,1.3v0.3c0,0.2,0,0.3,0,0.5c0,0.2,0.1,0.5,0,0.7
		v0.2c0,0.2,0,0.4,0,0.5c0.2,0.4,0.2,0.9,0.2,1.4v0.1c0,0.3,0,0.6-0.1,0.9c0,0.3,0,0.6,0,0.8c0,0.2,0,0.5,0,0.8c0,0.6,0,1.1-0.2,1.6
		c0,0.1,0,0.1,0,0.2c0,0.2,0,0.5,0,0.7c0,0,0,0.1,0,0.1c0.1,0.4,0.2,0.8,0.2,1.3v0.1c0,0.2,0,0.3,0,0.4c0.1,0.3,0.1,0.7,0.1,1.1v0.1
		c0,0.1,0,0.1,0,0.2c0,0.1,0,0.3,0,0.4v0.2c0,0,0,0.1,0,0.1c0.2,0.9,0.1,1.9-0.2,2.8c0.2,0.4,0.2,0.9,0.2,1.4v0.2
		c0,0.5-0.1,0.9-0.2,1.4c0,0,0,0.1,0,0.1c0.1,0.4,0.2,0.9,0.2,1.4v0.3c0,0.3,0,0.6-0.1,0.8c0.1,0.3,0.1,0.6,0.1,0.9v0.8
		c0,0.1,0,0.1,0,0.2c0,0.2,0,0.3,0,0.5v0.1c0,0.1,0,0.1,0,0.2c0,0.1,0,0.3,0,0.4v0.3c0,0.1,0,0.3,0,0.4c0,0.2,0,0.4,0,0.6v0.4
		c0,0.1,0,0.1,0,0.1c0,0.1,0,0.2,0,0.4v0.1c0,0.1,0,0.1,0,0.1c0,0.1,0,0.2,0,0.4v0.1c0,0,0,0.1,0,0.1c0,0.1,0,0.2,0,0.3v0.1
		c0,0.1,0,0.1,0,0.2c0,0.2,0,0.3,0,0.5v0.3c0,0.1,0,0.1,0,0.2c0,0.1,0,0.3,0,0.4v0.2c0,0.1,0,0.1,0,0.1c0,0.1,0,0.2,0,0.4v0.2
		c0,0.1,0,0.1,0,0.1l0.1,0.7c0,0.4-0.1,0.8-0.2,1.2c0.2,0.5,0.4,1.1,0.3,1.7v0.1c0,0.2,0,0.4,0,0.5c0,0.2,0,0.4,0,0.7v0.3
		c0,0.4-0.1,0.9-0.2,1.3c0,0.7-0.1,1.3-0.3,1.9c17.9,3.5,34.5,10.5,49.7,21.1c11,7.7,20.6,16.9,28.5,28.4c0.3-0.8,0.4-1,0.4-1.3
		C-42,167.9-42,146.3-42.1,124.7z"/>
</g>
<rect x="-167.8" y="6.8" class="st4" width="178.5" height="159.3"/>
<polyline class="st4" points="-362.8,86.4 -421,86.4 -421,-49.9 -314.1,-49.9 -314.1,86.4 "/>
<line class="st5" x1="-314.1" y1="86.4" x2="-362.8" y2="86.4"/>
<line class="st5" x1="-186.9" y1="7.5" x2="-183.9" y2="292.5"/>
<path class="st4" d="M-111.4,92.8c-0.5,56.9,1.5,114.9,1.8,172.4"/>
<path class="st0" d="M-121.3,55.1c0.7,35.5,0.7,72.5,1.2,108.5"/>
<line class="st5" x1="-172.5" y1="-19.8" x2="-169.5" y2="265.1"/>
<line class="st5" x1="-180.1" y1="94" x2="-180.1" y2="94"/>
<path class="st6" d="M-180.1,93.8c0.1,15.8,0.1,32.4,0.5,47.9"/>
<line class="st7" x1="-121.1" y1="93.1" x2="-120.3" y2="141.1"/>
<rect x="-167.8" y="92.3" class="st6" width="35" height="196.9"/>
<path class="st0" d="M848.9,715h-27.6c-8.2,0-14.8-6.6-14.8-14.8v-336c0-8.2,6.6-14.8,14.8-14.8h27.6c8.2,0,14.8,6.6,14.8,14.8v336
	C863.7,708.3,857.1,715,848.9,715z"/>
<line class="st7" x1="851.5" y1="14.7" x2="1152.7" y2="14.7"/>
<line class="st7" x1="1024.1" y1="171" x2="1325.3" y2="171"/>
<g class="st0">
	<g class="st3">
		<path class="st8" d="M1236.2,310.9c-150,0-300,0-450,0c0-150,0-300,0-450c150,0,300,0,450,0
			C1236.2,10.9,1236.2,160.9,1236.2,310.9z M853.1,124.8c7.2-0.6,14.1-1.4,21-1.8c21.1-1.2,42.2-2.4,63.3-3.3
			c4.6-0.2,9.5,0.5,14,1.6c12.2,3.1,21.8,10.4,29.3,20.3c6.1,8,10.9,17,17.6,24.3c21.5,23.6,48.2,33.4,79.8,26.5
			c8.8-1.9,17.3-5.5,25.5-9.3c9-4.2,16.6-10.5,23.8-18c-1.1-0.6-1.7-0.9-2.3-1.2c-19-8.8-37.8-18-57-26.3
			c-18.1-7.8-24.9-25.3-15.9-42.9c4.9-9.6,9.2-19.5,13.7-29.2c6.6-14.1,22-20.5,36.3-14.5c10.6,4.5,20.9,9.6,31.3,14.3
			c9.5,4.2,19,8.3,28.9,12.6c0.2-1.3,0.4-2.1,0.4-2.9c-0.6-24.1-7-46.4-21.8-65.6c-22.2-28.8-51.6-40-87.1-32.7
			c-20.4,4.2-37.2,15.7-50.7,31.4c-10,11.7-22.1,20-36.8,24.2c-14.7,4.2-29.7,5.5-45,4.6c-13-0.8-26-0.8-39.1-1
			c-9.7-0.1-19.4,0-29.3,0C853.1,66,853.1,95.4,853.1,124.8z"/>
		<path d="M853.1,124.8c0-29.5,0-58.9,0-88.7c9.9,0,19.6-0.1,29.3,0c13,0.2,26.1,0.2,39.1,1c15.3,0.9,30.3-0.3,45-4.6
			s26.7-12.5,36.8-24.2c13.5-15.7,30.4-27.2,50.7-31.4c35.5-7.3,64.9,3.9,87.1,32.7c14.8,19.2,21.2,41.5,21.8,65.6
			c0,0.8-0.2,1.7-0.4,2.9c-9.9-4.3-19.5-8.3-28.9-12.6c-10.5-4.7-20.8-9.9-31.3-14.3c-14.3-6-29.7,0.3-36.3,14.4
			c-4.6,9.7-8.8,19.6-13.7,29.2c-9,17.6-2.2,35.1,15.9,42.9c19.2,8.2,38,17.5,57,26.3c0.6,0.3,1.2,0.6,2.3,1.2
			c-7.2,7.4-14.8,13.8-23.8,18c-8.2,3.8-16.8,7.4-25.5,9.3c-31.7,6.9-58.3-2.9-79.8-26.5c-6.7-7.4-11.6-16.3-17.6-24.3
			c-7.5-9.9-17.1-17.2-29.3-20.3c-4.5-1.2-9.3-1.8-14-1.6c-21.1,0.9-42.2,2.1-63.3,3.3C867.2,123.5,860.4,124.2,853.1,124.8z"/>
	</g>
</g>
<image style="display:none;overflow:visible;enable-background:new    ;" width="306" height="377" xlink:href="5DDE4058.png"  transform="matrix(1.1569 -2.500000e-02 1.300000e-02 0.6038 771.2869 134.8401)">
</image>
<path class="st6" d="M916.7,492.6c-5,0-5-7.8,0-7.8c0,0,0,0,0,0c-0.3-19.7-0.7-39.3-1-59c0-1,0-2,0-3c-0.2,0-0.4,0-0.6,0
	c-5,0-5-7.8,0-7.8c3.4,0,4.5,3.6,3.3,5.9c0.7,0,1.4,0,2.1,0c39.3-1,78.7-1.9,118-2.9l-1.8-8.9c-2.5-6.2-7.1-15.1-15.5-23.2
	c-8.2-7.8-16.4-11.4-25.6-15.5c-6.2-2.7-15.4-6.2-28-8.9c-26.9-5.8-52.8-4.2-68.5-2.4c-8.9,1-17.9,2-26.8,3
	c-1.8,0.2-3.6,0.4-5.4,0.6c-1,56.8-2,113.6-3,170.5c14.4,3.9,34.6,7.8,59,7.1c19.1-0.5,35.4-3.7,47.8-7.1
	c5.5-1.1,15.3-3.8,24.9-11.4c15.7-12.4,19.8-29.4,20.9-34.6c-32,0.4-63.9,0.8-95.9,1.1C920.5,490.4,919.3,492.6,916.7,492.6z"/>
<g class="st0">
	<g class="st3">
		<path d="M915.3,421.3c3.2,0,3.2-5,0-5C912,416.3,912,421.3,915.3,421.3L915.3,421.3z"/>
	</g>
</g>
<g class="st0">
	<g class="st3">
		<path d="M918.3,419.4c0.2-0.2,0.5-0.4,0.7-0.6c0.2-0.2,0.4-0.5,0.5-0.8c0.2-0.3,0.2-0.6,0.2-1c0-0.3-0.1-0.7-0.2-1
			c-0.1-0.3-0.3-0.6-0.5-0.8c-0.2-0.1-0.3-0.3-0.5-0.4c-0.4-0.2-0.8-0.3-1.3-0.3c-0.2,0-0.4,0.1-0.7,0.1c-0.4,0.1-0.8,0.3-1.1,0.6
			c-0.2,0.2-0.5,0.4-0.7,0.6c-0.2,0.2-0.4,0.5-0.5,0.8c-0.2,0.3-0.2,0.6-0.2,1c0,0.3,0.1,0.7,0.2,1c0.1,0.3,0.3,0.6,0.5,0.8
			c0.2,0.1,0.3,0.3,0.5,0.4c0.4,0.2,0.8,0.3,1.3,0.3c0.2,0,0.4-0.1,0.7-0.1C917.6,419.9,918,419.7,918.3,419.4L918.3,419.4z"/>
	</g>
</g>
<g class="st0">
	<g class="st3">
		<path d="M918.3,419.2c1-0.2,2.1-1.2,2.2-2.3c0.1-0.9,0-1.7-0.6-2.4c-0.7-0.6-1.6-0.9-2.4-0.6c-1.1,0.3-2.3,0.5-3.4,0.8
			c-0.6,0.1-1.1,0.3-1.7,0.4c-0.3,0.1-0.6,0.1-0.8,0.2c-0.1,0-0.3,0.1-0.4,0.1c-0.7,0.1-0.3,0.2,1.2,0.2c0.3,0.3,0.6,0.6,0.9,0.9
			c0.3,0.8,0.3,1.4-0.1,2c-0.1,0.2-0.1,0.1,0,0c0.1-0.1,0.3-0.2,0.4-0.4c0.3-0.2,0.5-0.4,0.8-0.7c0.1-0.1,0.1-0.1-0.1,0.1
			c0.1-0.1,0.2-0.1,0.2-0.2c0.1-0.1,0.2-0.2,0.4-0.3c0.3-0.2,0.6-0.4,0.9-0.6c0.6-0.4,1.2-0.7,1.8-1c0.2-0.1,0.3-0.2,0.5-0.2
			c0.1,0,0.5-0.2,0.5-0.2c-0.1,0-0.2,0.1-0.2,0.1c0.1,0,0.2-0.1,0.3-0.1c0.2-0.1,0.3-0.1,0.5-0.2c-0.8-1.4-1.6-2.8-2.4-4.2
			c-3.7,3.5-7.4,7-10.7,11c-0.8,1-1,2.2-0.2,3.3c0.7,0.9,2.2,1.4,3.2,0.6c3.8-2.8,7.4-5.7,11-8.7c-1.2-1.2-2.4-2.4-3.5-3.5
			c-2.6,2.3-5.1,4.6-7.6,7c-0.9,0.9-0.9,2.3-0.2,3.3c0.8,1,2.1,1.2,3.2,0.6c1.8-0.8,3.6-1.8,5.3-2.9c-0.8-1.4-1.7-2.9-2.5-4.3
			c-0.7,0.5-1.4,1-2.1,1.5c0.8,1.4,1.7,2.9,2.5,4.3c0.5-0.3,0.9-0.6,1.5-0.9c0.3-0.2-0.1,0-0.1,0c0,0,0.3-0.1,0.3-0.1
			c0.3-0.1,0.6-0.2,0.9-0.3c1.3-0.3,2.2-1.8,1.8-3.1c-0.4-1.4-1.7-2-3.1-1.8c-0.9,0.2-1.8,0.5-2.5,0.9c-1.1,0.6-1.8,1.5-2.2,2.7
			c-0.3,0.8,0,1.9,0.6,2.4c0.7,0.6,1.4,0.9,2.3,0.8c0.9-0.1,1.5-0.6,2-1.3c0.8-1.1,0.2-2.8-0.9-3.4c-1.3-0.7-2.6-0.2-3.4,0.9
			c0,0,0,0.1-0.1,0.1c0.5-0.4,1-0.8,1.5-1.1c0,0-0.1,0-0.1,0c0.4,0,0.9,0,1.3,0c0,0-0.1,0-0.1,0c0.4,0.2,0.7,0.4,1.1,0.6
			c0,0,0,0-0.1-0.1c0.2,0.8,0.4,1.6,0.6,2.4c-0.2,0.4-0.2,0.4-0.1,0.3c0.1-0.2,0-0.1-0.2,0.2c0,0,0.2-0.2,0.2-0.2
			c-0.3,0.2-0.4,0.3-0.2,0.2c0.1,0,0.1-0.1,0.2-0.1c0.1,0,0.5-0.2,0.1-0.1c-0.4,0.2,0.1,0,0.1,0c0.1,0,0.2-0.1,0.4-0.1
			c0.3-0.1,0.5-0.1,0.8-0.2c-0.4-1.6-0.9-3.2-1.3-4.8c-1.4,0.3-2.7,0.9-3.8,1.8c-1,0.8-1.7,2.2-0.9,3.4c0.7,1.1,2.3,1.7,3.4,0.9
			c0.7-0.5,1.4-1,2.1-1.5c1.1-0.7,1.7-2.2,0.9-3.4c-0.7-1.1-2.2-1.7-3.4-0.9c-1.7,1.1-3.5,2.1-5.3,2.9c1,1.3,2,2.6,3,3.9
			c2.5-2.4,5-4.7,7.6-7c1-0.9,1-2.7,0-3.5c-1.1-1-2.5-0.9-3.5,0c-1.7,1.4-3.4,2.8-5.1,4.1c-0.5,0.4-0.9,0.7-1.3,1
			c-0.6,0.4,0.4-0.3-0.2,0.1c-0.2,0.2-0.5,0.4-0.7,0.5c-0.9,0.7-1.8,1.4-2.7,2c1,1.3,2,2.6,3,3.9c3.2-4,7-7.5,10.7-11
			c0.8-0.7,1-2.1,0.4-3c-0.6-0.9-1.8-1.5-2.8-1.1c-1.6,0.6-3.2,1.3-4.6,2.2c-0.8,0.5-1.5,1-2.3,1.6c-0.7,0.6-1.5,1.1-2,1.9
			c-0.9,1.4-0.6,3.3,0.8,4.3c1.2,0.8,2.5,0.3,3.7,0c1.8-0.4,3.5-0.9,5.3-1.3c-1-1-2-2-3.1-3.1c-0.1,0.7,0.3,0.3,1.2-1.2
			c-1.3,0.3-2.2,1.8-1.8,3.1C915.7,418.8,916.9,419.5,918.3,419.2L918.3,419.2z"/>
	</g>
</g>
<g class="st0">
	<g class="st3">
		<path d="M913.4,495.4c0.8-2.4,0.9-5,0.3-7.5c-1.4,0.8-2.8,1.6-4.2,2.4c3.6,2.8,6.9,5.9,10,9.2c1.2-1.2,2.4-2.4,3.5-3.5
			c-1.5-1.3-2.8-2.7-4-4.2c-0.3-0.4-0.6-0.8-0.9-1.1c-0.1-0.1-0.2-0.3-0.4-0.5c-0.2-0.2-0.2-0.2,0,0c-0.1-0.1-0.2-0.2-0.2-0.3
			c-0.6-0.8-1.2-1.6-1.8-2.4c-0.4-0.5-0.8-1-1.5-1.1c-0.6-0.2-1.4-0.1-1.9,0.2c-1.1,0.7-1.7,2.2-0.9,3.4c1.2,1.9,2.4,3.8,3.7,5.8
			c1.3-1,2.6-2,3.9-3c-0.2-0.3-0.5-0.5-0.7-0.8c-0.1-0.1-0.1-0.1-0.2-0.2c0,0.1,0.1,0.1,0.2,0.2c-0.1-0.1-0.3-0.4-0.3-0.5
			c-0.4-0.6-0.8-1.2-1.1-1.8c-1.1,1.1-2.3,2.3-3.4,3.4c1.5,1,3,1.9,4.4,2.9c0.9,0.6,2.3,0.4,3-0.4c0.8-0.8,0.9-2,0.4-3
			c-0.6-1.1-1.2-2.3-1.8-3.4c-1.1,1.1-2.3,2.3-3.4,3.4c0.5,0.3,1.1,0.7,1.7,1c0.9,0.5,2,0.4,2.8-0.2c0.8-0.6,1.1-1.6,0.9-2.6
			c-0.2-0.9-0.6-1.9-1.1-2.7c-0.9,1.2-1.9,2.5-2.8,3.7c0.1,0,0.2,0,0.3,0.1c-0.6-0.2-1-0.6-1.2-1.3c0-0.4,0-0.9,0-1.3
			c2.6-0.7,3.4-1.2,2.4-1.5c0.1,0,0.2,0.1,0.4,0.1c0-0.1-0.4-0.2-0.5-0.3c-0.4-0.2-0.8-0.5-1.1-0.7c-0.1,0-0.5-0.4-0.2-0.1
			c0.4,0.3-0.4-0.4,0,0c0.1,0.2,0.1,0.2,0,0c0.1,0.1,0.2,0.3,0.2,0.5c0,0.2,0,0.4,0,0.5c-0.2,0.4-0.2,0.4-0.1,0.2
			c-1.5-0.6-3-1.3-4.6-1.9c-0.2,1-0.1,2,0.5,3c0.5,0.8,1.4,1.5,2.4,1.7c1.4,0.2,2.6-0.4,3.1-1.8c0.3-1.1,0-2.3-0.8-3.1
			c-1-1-2.4-1-3.6-0.4c-1.2,0.5-1.6,2.4-0.9,3.4c0.8,1.2,2.1,1.5,3.4,0.9c-2,0.5-3-0.2-2.9-2.1c1-0.6,2-1.2,3.1-1.8
			c-0.3,0,0.1,0.1,0.2,0.1c-0.3-0.2,0.2,0.2,0.3,0.3c0.2,0.3,0-0.2,0.1,0.2s0.1,0.5,0.1,0.9c0.2-1.2-0.2-2.4-1.5-3
			c-1.2-0.5-2.4,0-3.1,1c-1,1.5-0.5,3.4,0.5,4.6c0.7,0.9,1.9,1.5,2.9,2.1c1.5,0.9,3.6,0.8,4.5-0.8c1.1-1.9-0.3-4-2.2-4.4
			c-1-0.2-2,0.1-2.6,0.9c-0.6,0.7-0.8,2-0.2,2.8c0.1,0.1,0.2,0.3,0.3,0.5c0,0.1,0.3,0.5,0.1,0.2c-0.2-0.3,0,0.2,0.1,0.2
			c0,0.2,0.1,0.4,0.1,0.5c1.2-0.9,2.5-1.9,3.7-2.8c-0.5-0.3-1.1-0.7-1.7-1c-0.9-0.5-2.3-0.4-3,0.4c-0.8,0.8-0.9,2-0.4,3
			c0.6,1.1,1.2,2.3,1.8,3.4c1.1-1.1,2.3-2.3,3.4-3.4c-1.5-1-3-1.9-4.4-2.9c-0.9-0.6-2.3-0.4-3,0.4c-0.8,0.8-0.9,2-0.4,3
			c0.8,1.5,1.8,2.9,3,4.2c0.8,0.9,2.3,0.9,3.3,0.2c1-0.7,1.3-2.2,0.6-3.2c-1.2-1.9-2.4-3.8-3.7-5.8c-1.4,0.8-2.9,1.7-4.3,2.5
			c2.5,3.3,5,6.7,8.1,9.5c1,0.9,2.6,1,3.5,0c0.9-1,1-2.5,0-3.5c-3.1-3.3-6.4-6.4-10-9.2c-0.9-0.7-2-1-3-0.4c-1,0.6-1.4,1.7-1.2,2.8
			c0.1,0.3,0.1,0.5,0.2,0.8c0.1,0.6,0-0.4,0,0.1c0,0.5,0.1,1,0,1.5c0,0.2,0,0.5,0,0.7c0.2-0.6,0,0.1,0,0.2c-0.1,0.5-0.2,1-0.4,1.5
			c-0.4,1.2,0.5,2.8,1.8,3.1C911.7,497.5,912.9,496.7,913.4,495.4L913.4,495.4z"/>
	</g>
</g>
<line class="st7" x1="987.2" y1="108.6" x2="993.3" y2="448"/>
<path class="st7" d="M771.3,484.7"/>
<polyline class="st7" points="915.6,422.9 916.7,421.6 918.2,421 "/>
<polyline class="st7" points="920.4,488.4 918.2,486.7 916.7,484.8 "/>
<path class="st6" d="M887.9,383.2"/>
<polyline class="st6" points="863.7,533.2 863.7,362.4 866.7,362.7 "/>
<path class="st4" d="M512.9,206.9c-2.4,1.3-4.8,2.6-7.3,3.8c-2.9,1.5-5.6,1.1-7.3-0.9c0,0.1,0,0.1-0.1,0.1c-0.9,1.8-2.6,3-4.4,3.8
	c-1.2,0.6-2.5,0.8-3.9,0.5c-0.5-0.1-0.9-0.3-1.3-0.6c-0.8,0.6-1.7,1-3,1c-0.6,0-1.2-0.1-1.7-0.3c-0.5,0.2-1,0.3-1.6,0.3
	c-0.3,0-0.5,0-0.8-0.1c-0.2,0-0.5,0.1-0.8,0.1c-3,0-4.6-2.2-4.8-4.5c0,0-0.1,0-0.1-0.1c0,0-0.1-0.1-0.1-0.1
	c-0.1-0.1-0.2-0.2-0.3-0.2c0,0-0.1-0.1-0.1-0.1c-0.1-0.1-0.2-0.2-0.4-0.4c0,0,0,0,0,0c-0.1-0.1-0.2-0.3-0.3-0.4c0,0,0-0.1-0.1-0.1
	c-0.1-0.1-0.1-0.2-0.2-0.4c0,0,0-0.1-0.1-0.1c-0.1-0.1-0.1-0.3-0.2-0.5c0,0,0,0,0,0c-0.1-0.2-0.1-0.4-0.2-0.6c0,0,0-0.1,0-0.1
	c0-0.2-0.1-0.3-0.1-0.5c0,0,0-0.1,0-0.1c0-0.2,0-0.4,0-0.6v0c0-0.2,0-0.4,0-0.6c0,0,0,0,0,0c0-0.2,0-0.4,0.1-0.6c0,0,0-0.1,0-0.1
	c0-0.2,0.1-0.4,0.1-0.6c0,0,0,0,0,0c0.1-0.2,0.1-0.4,0.2-0.6c-0.7-0.4-1.3-1-1.8-1.8c-0.2-0.4-0.3-0.8-0.5-1.2
	c-0.1-0.4-0.2-0.9-0.2-1.3c-1.9-1.9-1.8-5.4,0.1-7.3c0.5-1.1,1.3-2,2.5-2.5c0.2-0.2,0.4-0.4,0.7-0.6H348.9v197.4h106.6
	c-6.4,0-6.4-10,0-10c1,0,1.8,0.2,2.5,0.6c0.2,0,0.4-0.1,0.6-0.1c0,0,0.1,0,0.1-0.1c0,0,0,0,0.1,0c0.1,0,0.2-0.1,0.3-0.1
	c0,0,0.1,0,0.1,0c0.1,0,0.3-0.1,0.4-0.1c0,0,0,0,0.1,0c0.1,0,0.2,0,0.3,0c0.3,0,0.5-0.1,0.8-0.1c0.2,0,0.4,0,0.6,0
	c0.1,0,0.2,0,0.3,0s0.2,0,0.3,0c0.1,0,0.2,0.1,0.3,0.1c0,0,0.1,0,0.2,0c0.1,0,0.2,0.1,0.4,0.1c0,0,0.1,0,0.1,0
	c0.1,0.1,0.3,0.1,0.4,0.2c0,0,0,0,0,0c0.1,0.1,0.3,0.2,0.4,0.2c0,0,0,0,0,0c0.2,0.2,0.5,0.4,0.7,0.6c0.4-0.4,0.9-0.7,1.4-0.8
	c0.6-0.3,1.2-0.5,1.9-0.4h0.5c0.1,0,0.3,0,0.4,0c0.1,0,0.2,0,0.3,0c0.1,0,0.1,0,0.2,0c0.1,0,0.2,0,0.3,0h0.3
	c-0.3-2.7,1.3-5.6,4.8-5.6c-0.4-0.7-0.7-1.6-0.6-2.7c0.2-6.4,3.8-11.9,4.3-18.3c0.5-4.8,0.2-9.5-0.6-14.2c-0.4-2.7-0.9-5.5-1.1-8.3
	c-2.5,1.2-6.2,0.6-7.6-2.8s-3.3-7-6-9.5c-2.4-2.2-5.7-2.7-8.3-4.5c-1.5-1-2.9-2.3-4.1-3.8c0,0,0,0,0,0c-0.6,0-1.1-0.1-1.5-0.2
	c-0.4,0.1-0.9,0.2-1.4,0.2c-0.1,0-0.1,0-0.2,0c-0.8,0.6-1.8,1-3,1c-5.3,0-6.2-6.8-2.7-9.2c-1.1-2.1-0.6-5.1,1.4-6.6
	c0-0.1-0.1-0.3-0.1-0.4c0-0.2,0-0.4-0.1-0.6c-3.7-2.3-2.8-9.3,2.6-9.3c1.6,0,2.8,0.6,3.6,1.6c0,0,0.1,0,0.1,0.1
	c0.7-1.6,2.1-2.9,4.4-2.9c1.4,0,2.4,0.5,3.2,1.2c0.8-0.6,1.7-0.9,2.9-0.9c1,0,1.9,0.3,2.6,0.7c0.3-0.2,0.6-0.4,1-0.6
	c-1-2.9,0.5-6.8,4.5-6.8c0.5,0,1,0.1,1.4,0.2c0-0.1,0.1-0.2,0.1-0.3c0.1-0.3,0.3-0.5,0.4-0.8c0.1-0.1,0.1-0.2,0.2-0.3
	c0.3-0.4,0.6-0.8,0.9-1.2c0.2-0.2,0.5-0.4,0.8-0.6c0-0.1,0-0.2,0-0.3c-0.7-1.1-0.9-2.4-0.8-3.7c-2.3-2.9-1-8.3,3.7-8.3
	c2.3,0,3.7,1.2,4.4,2.8c0.2,0.2,0.4,0.5,0.6,0.7c0.6-0.4,1.4-0.7,2.3-0.7c-0.2-0.6,0.1-1.1,0.6-1.4c-1.7-1.9-3-4.2-3.8-6.9
	c-1.8-6.3-4.8-12-9.3-17c-8.7-9.9-20-15.8-33.9-17.3c-25.5-2.8-49.6,12.5-55.3,35.4c-6.6,26.2,12.4,52,41.5,56.2c5,0.7,10,0.7,15,0
	c11.5-1.4,20.7,2.7,26.2,12c7.9,13.2,8.6,26.7-0.2,39.6c-9.1,13.4-22.8,19.4-40.1,17.8c-13.2-1.3-23.4-7.5-30.5-17.7
	c-2.2-3.2-3.4-6.7-3.7-10.6c0.8,0,1.4-0.1,2.1-0.1c4,0,8,0,12,0c4.4,0,8.2,1.3,11.4,4c7.2,6,17.8,6.5,25.4,1.2
	c7.7-5.4,10-14.8,5.5-22.8c-1.4-2.5-3.5-3.6-6.6-3.5c-5.3,0.2-10.7,0.6-15.9,0.2c-18.1-1.5-33.4-8.5-45.8-20.6
	c-14.3-14.1-20.7-30.9-19.3-50c2.1-28.9,25.6-53.8,56.8-59.6c26.7-5,49.9,1.6,68.7,19.6c8.5,8.1,14.1,17.5,17,27.8
	c0-0.1,0.1-0.1,0.2-0.2c0.6-0.6,1.9-0.7,2.5,0c0.1,0.1,0.2,0.2,0.3,0.4c0.6-0.2,1.3-0.2,1.9-0.2c0.4-0.5,0.8-1,1.2-1.5
	c-0.1-0.1-0.2-0.1-0.2-0.2c-0.5-0.4-0.8-1-1-1.6c-0.3-0.6-0.5-1.2-0.4-1.9v-0.3c0-0.5,0.1-1,0.2-1.4c-4.8-0.6-5.4-7.2-1.8-9.3
	c-4.4-1.2-4.5-7.9-0.4-9.5c-0.6-2.8,1-6.2,4.7-6.2c0.7,0,1.4,0.1,1.9,0.4c0.6-0.5,1.3-0.9,2.2-1c0-0.1,0.1-0.2,0.1-0.4
	c0-0.3-0.1-0.6-0.1-0.9c0-0.2,0-0.4,0-0.6c-0.8-2.1-0.2-4.9,1.7-6.2C512.9,207.1,512.9,207,512.9,206.9z"/>
<path class="st4" d="M361.1,209.2c-1.4,2.2-4.2,3.1-6.6,2.1c-1.6-0.7-3.2-1.6-4.7-2.4c-0.3-0.2-0.6-0.6-0.6-0.9c0-3.5,0-7.1,0-10.9
	c3.8,2,7.4,3.8,10.7,5.8C362.2,204.2,362.5,207.1,361.1,209.2z"/>
<path d="M1580,995.3c-11.2,0.2-22.5,0.3-33.7,0.4c-3.6,0-2.7-2.8-2.7-4.8c-0.1-18.3,0-36.7-0.1-55c0-3.3,0.2-6.9-0.9-10
	c-0.8-2.2-3.6-4.9-5.6-5c-2.1-0.1-5,2.2-6.2,4.3c-1.2,2.1-1.2,5.2-1.2,7.8c-0.1,19-0.2,38,0,57c0.1,4.5-1.4,5.8-5.8,5.6
	c-10.9-0.3-21.8-0.2-32.8,0c-3.8,0.1-5.4-0.9-5.3-5c0.2-22.2-0.2-44.4,0.2-66.6c0.5-30.4,26.4-51.9,54.7-44.9
	c6.9,1.7,13.5,5.8,19.3,10.2c4.2,3.1,6.5,4.7,10.6,0.2c2.5-2.8,6.3-4.3,9.5-6.5C1580,920.5,1580,957.9,1580,995.3z"/>
<path d="M1410.4,982c-11.5,6.6-22.9,13.4-34.5,19.9c-9,5.1-17.5,3-22.1-5.2c-4.5-8-1.9-16.2,6.8-21.3c16.6-9.6,33.2-19.2,49.8-28.7
	C1410.4,958.5,1410.4,970.3,1410.4,982z"/>
<path d="M482.7,260.2c-1.7-1.8-3-4.1-3.7-6.8c-1.8-6.3-4.8-12-9.3-17c-8.7-9.9-20-15.8-33.9-17.3c-25.5-2.8-49.6,12.5-55.3,35.4
	c-6.6,26.2,12.4,52,41.5,56.2c5,0.7,10,0.7,15,0c11.5-1.4,20.7,2.7,26.2,12c7.9,13.2,8.6,26.7-0.2,39.6
	c-9.1,13.4-22.8,19.4-40.1,17.8c-13.2-1.3-23.4-7.5-30.5-17.7c-2.2-3.2-3.4-6.7-3.7-10.6c0.8,0,1.4-0.1,2.1-0.1c4,0,8,0,12,0
	c4.4,0,8.2,1.3,11.4,4c7.2,6,17.8,6.5,25.4,1.2c7.7-5.4,10-14.8,5.5-22.8c-1.4-2.5-3.5-3.6-6.6-3.5c-5.3,0.2-10.7,0.6-15.9,0.2
	c-18.1-1.5-33.4-8.5-45.8-20.6c-14.3-14.1-20.7-30.9-19.3-50c2.1-28.9,25.6-53.8,56.8-59.6c26.7-5,49.9,1.6,68.7,19.6
	c8.3,7.9,13.8,17,16.8,27"/>
<path d="M468.1,349c0.2,0,0.4,0,0.6,0.1c0.2-0.9,0.3-1.8,0.4-2.7c-0.1,0-0.1,0-0.2,0c-2.3,0-2.3-3.2,0-3.2c0.1,0,0.3,0,0.4,0
	c0-1.4,0-2.7-0.2-4.1c-0.1,0-0.2,0-0.3,0c-2.2,0-2.3-3-0.2-3.2c-1-4.4-2.8-8.8-5.4-13.2c-5.6-9.3-14.8-13.4-26.2-12
	c-5,0.6-10,0.7-15,0c-29.1-4.3-48.1-30-41.5-56.2c4.6-18.2,20.8-31.6,40-34.9c0-0.2,0-0.4,0.1-0.6c-0.1-0.3-0.1-0.6,0-0.9
	c0-0.1,0-0.2,0-0.3c0-0.2,0-0.4,0.1-0.6c0-0.1,0.1-0.1,0.1-0.2c0-0.2,0-0.3,0.1-0.5c0-0.2,0-0.5,0.1-0.7c0-0.3,0-0.6,0.1-0.9
	c0-0.1-0.1-0.3-0.1-0.4v-0.1c0-0.2,0-0.4,0.2-0.7c0-0.1,0-0.3,0.1-0.4c-0.2-0.3-0.3-0.6-0.3-1c-0.1-0.2-0.1-0.4-0.1-0.5v-0.1
	c0-0.1,0-0.2,0-0.3c0-0.2-0.1-0.4,0-0.6c0-0.1,0-0.1,0-0.2c0-0.1-0.1-0.3-0.1-0.4v-0.2c0-0.2,0.1-0.5,0.2-0.7c0,0,0-0.1-0.1-0.1
	c-0.1-0.2-0.2-0.4-0.1-0.6v0c0-0.1,0-0.2,0-0.2c0-0.1,0-0.2,0-0.3v0c0-0.1,0-0.2,0-0.3c0-0.1,0-0.2,0-0.4V207c0-0.1,0-0.2,0-0.2
	c0-0.1,0-0.2,0-0.3v-0.1c0-0.1,0-0.3,0.1-0.4c-0.2-1.5-0.3-3-0.3-4.4c0,0,0-0.1,0-0.1c-0.2-0.4-0.3-0.8-0.2-1.3
	c-0.1-0.2-0.1-0.4-0.1-0.6c-1.9,0.2-3.8,0.5-5.8,0.9c-31.1,5.8-54.7,30.8-56.8,59.6c-1.4,19.1,5,36,19.3,50
	c12.3,12.1,27.7,19.1,45.8,20.6c5.3,0.4,10.6,0,15.9-0.2c3.1-0.1,5.2,1,6.6,3.5c4.5,8,2.2,17.5-5.5,22.8c-7.6,5.3-18.2,4.8-25.4-1.2
	c-3.2-2.7-7-4.1-11.4-4c-4,0-8,0-12,0c-0.6,0-1.3,0-2.1,0.1c0.3,4,1.4,7.5,3.7,10.6c7.2,10.2,17.3,16.5,30.5,17.7
	c17.2,1.7,31-4.4,40.1-17.8c2.3-3.3,3.9-6.7,4.9-10.1C465.8,352,465.9,349,468.1,349z"/>
<path d="M445.1,220v0.5c0,0.1,0,0.2,0,0.3c9.7,2.7,17.9,7.9,24.6,15.5c4.5,5.1,7.5,10.8,9.3,17c0.8,2.7,2,5,3.7,6.8l17.1-13.3
	c-3-10-8.5-19.1-16.8-27c-11.3-10.8-24.2-17.5-38.5-20"/>
<path d="M444.5,199.9c0.1,0.3,0.2,0.6,0.2,1c0.2,0.5,0.2,1-0.1,1.4c0,0.4-0.1,0.8-0.3,1.1c0,0.1,0,0.1,0,0.2v0c0,0,0,0,0,0.1
	c0.1,0.2,0.1,0.5,0.1,0.7c0,0,0,0.1,0.1,0.1c0.1,0.2,0.2,0.4,0.1,0.6v0.2c0,0.1,0,0.2,0,0.2c0,0.2,0,0.4,0,0.6
	c0,0.2-0.1,0.3-0.1,0.5c0,0,0,0.1,0,0.1v0.2c0,0.2,0,0.3-0.1,0.5c0,0.1,0,0.2,0,0.3v0.1c0,0.1,0,0.2,0,0.2c0,0.1,0,0.2,0,0.3v0.3
	c0,0.1,0,0.2,0,0.4c0,0.1,0,0.1,0,0.2c0,0,0,0,0,0c0,0.2,0,0.3,0,0.5c0,0,0,0.1,0,0.1c0,0.1,0,0.2,0,0.4c0,0,0,0.1,0,0.1
	c0,0.1,0,0.2,0,0.2v0.1c0,0,0,0,0,0c0,0,0,0.1,0,0.1c0,0.1,0,0.3,0,0.4c0,0.2,0,0.3-0.1,0.5c0.5,2.4-0.1,4.8,0.4,7.2
	c0.2,0.2,0.4,0.6,0.4,1"/>
<path d="M1281.4,1047.7c10.6,6.2,20.7,11.6,30.2,17.8c6.3,4.1,7.3,12.9,3.4,19.4c-4,6.7-11.7,9.6-18.7,6.5c-4.6-2-8.9-4.8-13.2-7.3
	c-0.8-0.5-1.6-1.8-1.7-2.8C1281.4,1070.4,1281.4,1059.6,1281.4,1047.7z"/>
<line class="st9" x1="395.8" y1="81.7" x2="399.1" y2="280.3"/>
<line class="st9" x1="394.8" y1="19.9" x2="395.8" y2="81.7"/>
<line class="st9" x1="393.7" y1="-46" x2="394.8" y2="19.9"/>
<image style="display:none;overflow:visible;enable-background:new    ;" width="486" height="514" xlink:href="5DDE4059.png"  transform="matrix(0.269 1.350000e-02 -1.420000e-02 0.2948 980.5722 175.4259)">
</image>
<rect x="535.3" y="20.7" class="st4" width="5.8" height="112.7"/>
<polygon points="439.4,298.1 426.1,298.1 426.1,203.3 439.4,203.3 439.4,265.1 "/>
<rect x="748" y="-111.6" class="st4" width="18.2" height="352.6"/>
<rect x="462.1" y="10.2" class="st4" width="5.4" height="84.6"/>
<rect x="570.4" y="205.7" transform="matrix(0.7752 -0.6317 0.6317 0.7752 -6.3216 413.0038)" class="st4" width="13.4" height="19.4"/>
<line class="st7" x1="639.2" y1="441.1" x2="223.7" y2="434"/>
<line class="st7" x1="639.4" y1="464" x2="223.9" y2="456.9"/>
<line class="st7" x1="639.4" y1="473.7" x2="223.9" y2="466.6"/>
<line class="st7" x1="639.5" y1="482.6" x2="224" y2="475.5"/>
<line class="st7" x1="639.4" y1="491.6" x2="223.9" y2="484.5"/>
<line class="st7" x1="639.4" y1="452.5" x2="223.9" y2="445.4"/>
<rect x="407.5" y="438.7" class="st4" width="89.2" height="9.7"/>
<rect x="516.2" y="439.2" class="st4" width="99.8" height="9.8"/>
<rect x="428.1" y="460.9" class="st4" width="68.5" height="9.2"/>
<rect x="515.2" y="460.4" class="st4" width="41.7" height="9.7"/>
<rect x="442.6" y="479.7" class="st4" width="54.1" height="8.3"/>
<rect x="515.2" y="479.7" class="st4" width="40.2" height="8.3"/>
<path class="st10" d="M470.2,412.1c-15,4.5-35.8,8.8-60.5,8.1c-25-0.7-45.7-6.3-60.4-11.7"/>
<path class="st10" d="M465.4,393.6c-12.1,3.6-30.1,7.6-52.9,7.7c-0.9,0-3.5,0-6.7-0.1c-13.7-0.4-33.7-2.7-58.8-11.2"/>
<path class="st10" d="M473.5,427.4c-13,5.8-33,12.7-57.8,13.2c-29.7,0.6-53.1-8.1-67-14.7"/>
<path class="st7" d="M409.8,434.2"/>
<g id="Layer_8" class="st0">
</g>
<g id="Layer_9" class="st0">
</g>
<path class="st7" d="M409.9,460.9"/>
<rect x="-439.7" y="668" class="st11" width="218.1" height="43.9"/>
<text transform="matrix(1.0952 0 0 1 -424.9624 697.7951)" style="font-family:'CooperBlack'; font-size:23.3871px;">SMART FIXLY</text>
<rect x="806.8" y="-59.5" class="st12" width="18.8" height="328.9"/>
<g class="st0">
	
		<image style="display:inline;overflow:visible;enable-background:new    ;" width="298" height="703" xlink:href="5DDE405F.png"  transform="matrix(8.854329e-02 0 0 8.854329e-02 1000.7758 297.7575)">
	</image>
	<path class="st1" d="M990.8,357.9v-58.1c0-7.3,5.9-13.2,13.2-13.2h20c7.3,0,13.2,5.9,13.2,13.2v58.1c0,7.3-5.9,13.2-13.2,13.2h-20
		C996.7,371.1,990.8,365.2,990.8,357.9z"/>
	<path class="st1" d="M1014,296.6L1014,296.6c7.3,0,13.2,5.9,13.2,13.2v38.1c0,7.3-5.9,13.2-13.2,13.2l0,0
		c-7.3,0-13.2-5.9-13.2-13.2v-38.1C1000.8,302.5,1006.7,296.6,1014,296.6z"/>
</g>
<path class="st4" d="M400.7,294.2l-0.3,0c-7.4,0.5-14.5-11.9-15.8-27.7c0-0.3-0.1-0.7-0.1-1c-1.3-15.8,3.7-29,11.1-29.5
	c0.1,0,0.2,0,0.3,0c7.4-0.5,10.1,12.2,11.4,28c0,0.3,0.1,0.7,0.1,1C408.6,280.8,408.1,293.7,400.7,294.2z M387.4,268.7
	c0.5,2.5,0.9,5,1.5,7.4c1.3,5.5,3.5,10.4,6.7,14.8c3.9,0.1,5.3-3,3.4-6.2c-3.5-6-5.6-12.6-5.5-20c0-4.9,1-9.5,3.1-13.6
	c1.1-2.3,2.5-4.4,3.8-6.6c0.9-1.6,0.6-3.7-0.6-5c-1.2-1.2-2.9-1.2-3.9,0.2c-1.2,1.6-2.3,3.1-3.3,4.9
	C388.7,251.8,386.6,259.7,387.4,268.7z"/>
<path d="M387.4,268.7c-0.7-9,1.4-16.9,5.2-24.2c0.9-1.8,2.1-3.4,3.3-4.9c1-1.4,2.7-1.4,3.9-0.2c1.3,1.3,1.5,3.4,0.6,5
	c-1.3,2.2-2.7,4.3-3.8,6.6c-2,4.1-3,8.7-3.1,13.7c-0.1,7.4,2,14,5.5,20c1.9,3.2,0.5,6.4-3.4,6.2c-3.2-4.4-5.4-9.4-6.7-14.8
	C388.3,273.7,387.9,271.2,387.4,268.7z"/>
<g class="st0">
	<g class="st3">
		<path d="M324.5,196.7c3.2,0,3.2-5,0-5S321.3,196.7,324.5,196.7L324.5,196.7z"/>
	</g>
</g>
<g class="st0">
	<g class="st3">
		<path d="M316.3,186.5c3.2,0,3.2-5,0-5S313.1,186.5,316.3,186.5L316.3,186.5z"/>
	</g>
</g>
<path d="M460.5,197.8c0.1-0.3,0.2-0.7,0.3-1c2.5-4.2,5.1-8.3,7.6-12.5c0.5-0.9,1-1.7,1.5-2.6c0.4-0.7,1.3-1,2.1-0.8
	c0.9,0.2,1.5,0.9,1.5,1.7c0,0.5-0.3,1-0.6,1.4c-2.9,4.7-5.7,9.4-8.6,14.2c-0.7,1.1-1.4,1.5-2.6,1.2
	C461.2,199.3,460.6,198.6,460.5,197.8z"/>
<path class="st4" d="M524.1,188.9c-0.7,1.3-2,2.3-3.8,2.4c-0.4,0.3-0.9,0.5-1.5,0.6c-0.6,0.3-1.2,0.4-1.9,0.4h-0.2
	c-0.2,0.1-0.5,0.1-0.7,0.2c-0.6,0.3-1.2,0.6-2,0.6c-0.1,0-0.1,0.1-0.2,0.1c-0.2,0.1-0.3,0.2-0.5,0.3c-0.6,1.7-2.1,3-4.5,3
	c-0.1,0-0.2,0-0.3,0v7.5h12.6c-0.6-2.4,0.4-5.2,3-6.1c0.5-1.9,2-3.6,4.7-3.6c0.7,0,1.3,0.1,1.9,0.3v-5.8H524.1z M528.7,193.3
	c-1.5,0.9-3,1.8-4.5,2.6c-1.6,0.9-3.2,1.9-4.8,2.8c-2,1.2-4.1,2.4-6.1,3.6c-0.5,0.3-1.1,0.7-1.7,0.6c-1.3-0.1-2.1-1.1-1.8-2.3
	c0.1-0.4,0.4-0.8,0.8-1c1.4-0.9,2.9-1.7,4.3-2.5c1.3-0.8,2.7-1.6,4-2.3c1.6-0.9,3.2-1.9,4.8-2.8c1-0.6,2-1.2,3-1.7
	c0.3-0.2,0.7-0.2,1-0.3c0.9,0.1,1.5,0.5,1.8,1.2C529.8,191.9,529.4,192.9,528.7,193.3z"/>
<path d="M507.8,206.8c0.9,0.1,1.5,0.5,1.8,1.2c0.4,0.7,0,1.7-0.8,2.1c-1.5,0.9-3,1.8-4.5,2.6c-1.6,0.9-3.2,1.9-4.8,2.8
	c-2,1.2-4.1,2.4-6.1,3.6c-0.5,0.3-1.1,0.7-1.7,0.6c-1.3-0.1-2.1-1.1-1.8-2.3c0.1-0.4,0.4-0.8,0.8-1c1.4-0.9,2.9-1.7,4.3-2.5
	c1.3-0.8,2.6-1.6,4-2.3c1.6-0.9,3.2-1.9,4.8-2.8c1-0.6,2-1.2,3-1.7C507.1,206.9,507.5,206.9,507.8,206.8z"/>
<path class="st4" d="M444.5,170.2H441v21.5c1.5,0,2.9,0,4.4,0v-19.2C444.9,171.9,444.6,171.1,444.5,170.2z M443.2,191.6
	c-1.1,0-1.9-0.7-1.9-1.9c0-2.8,0-5.6,0-8.5c0-2.9,0-5.7,0-8.6c0-0.9,0.5-1.5,1.4-1.8c0.8-0.2,1.8,0.1,2.1,0.8
	c0.2,0.3,0.3,0.7,0.3,1.1c0,5.7,0,11.4,0,17.1C445.1,190.9,444.2,191.6,443.2,191.6z"/>
<path d="M430.4,177.9c0-2.9,0-5.7,0-8.6c0-0.9,0.5-1.5,1.4-1.8c0.8-0.2,1.8,0.1,2.1,0.8c0.2,0.3,0.3,0.7,0.3,1.1
	c0,5.7,0,11.4,0,17.1c0,1.2-0.9,1.9-1.9,1.9c-1.1,0-1.9-0.7-1.9-1.9C430.4,183.6,430.4,180.8,430.4,177.9z"/>
<path class="st4" d="M384.3,180c5.5,0,11,0,16.5,0c0,6.8,0,13.5,0,20.2c-5.5,0-11,0-16.5,0C384.3,193.4,384.3,186.7,384.3,180z
	 M397.5,199.2c1,0,1.7-0.3,2-0.9c0.4-0.7,0.3-1.3-0.2-2c-1-1.4-2-2.9-3-4.3c-2.2-3.1-4.5-6.3-6.7-9.4c-0.5-0.6-0.9-1.3-1.8-1.5
	c-0.8-0.1-1.5,0.1-2,0.8c-0.5,0.6-0.5,1.3,0,2c1.6,2.3,3.2,4.6,4.9,6.8c1.8,2.5,3.6,5,5.3,7.5C396.5,198.9,397,199.2,397.5,199.2z"
	/>
<path d="M397.5,199.2c-0.5,0-1-0.4-1.5-1c-1.8-2.5-3.5-5-5.3-7.5c-1.6-2.3-3.2-4.6-4.9-6.8c-0.5-0.6-0.5-1.4,0-2
	c0.5-0.6,1.2-0.9,2-0.8c0.9,0.1,1.3,0.8,1.8,1.5c2.2,3.1,4.5,6.3,6.7,9.4c1,1.4,2,2.9,3,4.3c0.5,0.6,0.5,1.3,0.2,2
	C399.2,198.9,398.5,199.2,397.5,199.2z"/>
<path class="st4" d="M368.4,223.2c-7.1,0-14.1,0-21.2,0c0-5.5,0-11,0-16.5c7.1,0,14.1,0,21.2,0C368.4,212.2,368.4,217.7,368.4,223.2
	z M350.4,207.8c-0.3,0.1-0.5,0.1-0.8,0.2c-0.8,0.3-1.4,1.3-1.1,2.1c0.2,0.6,0.6,0.9,1,1.2c1.5,1.1,3,2.2,4.5,3.2
	c1.8,1.3,3.5,2.5,5.3,3.8c1.5,1.1,3,2.1,4.5,3.2c0.6,0.4,1.2,0.6,1.9,0.5c0.8-0.1,1.3-0.6,1.5-1.4c0.2-0.6-0.1-1.4-0.7-1.8
	c-0.8-0.6-1.6-1.2-2.4-1.8c-2-1.5-4.1-3-6.2-4.5c-1.8-1.3-3.6-2.7-5.5-4C351.9,208.4,351.3,207.8,350.4,207.8z"/>
<path d="M350.4,207.8c0.9,0,1.5,0.6,2.1,1c1.8,1.3,3.7,2.6,5.5,4c2,1.5,4.1,3,6.2,4.5c0.8,0.6,1.6,1.2,2.4,1.8
	c0.6,0.4,0.9,1.2,0.7,1.8c-0.2,0.7-0.7,1.2-1.5,1.4c-0.7,0.1-1.3-0.1-1.9-0.5c-1.5-1.1-3-2.2-4.5-3.2c-1.8-1.3-3.5-2.5-5.3-3.8
	c-1.5-1.1-3-2.2-4.5-3.2c-0.5-0.3-0.8-0.7-1-1.2c-0.3-0.7,0.3-1.8,1.1-2.1C349.9,207.9,350.2,207.9,350.4,207.8z"/>
<line class="st7" x1="674" y1="-26.8" x2="143.5" y2="-24.6"/>
<path class="st4" d="M668.5-182.3c-55.9,0-111.8,0-167.7,0c0-55.9,0-111.8,0-167.7c55.9,0,111.8,0,167.7,0
	C668.5-294.1,668.5-238.2,668.5-182.3z M559.7-308.6c-0.2-0.2-0.3-0.3-0.4-0.4c-1.5-1.5-3.1-2.9-4.6-4.4c-2-1.8-4.4-1.9-6.4-0.1
	c-1.8,1.6-3.4,3.4-5.1,5.1c-0.4,0.4-0.7,0.8-1,1.3c-0.8,1.4-0.6,3.6,0.5,4.7c1.7,1.8,3.5,3.6,5.2,5.4c-0.7,1.1-1.3,2.2-2,3.2
	c-2.3,4-3.7,8.4-4.8,12.9c-0.1,0.5-0.3,0.7-0.8,0.7c-2.1,0-4.1,0.2-6.2,0.1c-2.5-0.1-4.7,2.2-4.6,4.6s0,4.8,0,7.2
	c0,2.3,1.5,4.1,3.8,4.3c2.1,0.2,4.2,0.2,6.3,0.2c0.9,0,1.3,0.1,1.5,1.1c1,5,3,9.5,5.6,13.9c0.3,0.6,0.7,1.2,1,1.8
	c-0.2,0.2-0.4,0.4-0.6,0.6c-1.6,1.7-3.2,3.4-4.7,5.2c-1.1,1.3-1.2,2.9-0.4,4.2c2,3,4.6,5.6,7.6,7.6c0.1,0.1,0.2,0.1,0.3,0.1
	c1.2,0.3,2.3,0.5,3.3-0.4c1.9-1.7,3.8-3.3,5.6-5c0.4-0.4,0.7-0.4,1.2-0.1c2.6,1.4,5.2,2.7,7.8,4c0.3,0.2,0.7,0.3,1.2,0.4
	c0.1-0.5,0.1-0.9,0.1-1.4c0-4.2,0-8.4,0.1-12.6c0-0.6-0.2-0.9-0.7-1.1c-3.3-2-5.9-4.8-8.6-7.5c-1.9-1.9-3-4.3-4.1-6.7
	c-2.3-5.3-2.9-10.9-2.2-16.6c0.6-4.8,2.4-9.3,5.1-13.3c2.2-3.2,5-6,8.2-8.1c4.4-3,9.3-4.7,14.7-5c3.6-0.2,7.2-0.1,10.7,0.8
	c5.2,1.3,9.5,4,13.3,7.7c5.2,5.1,8.2,11.3,9.2,18.6c0.6,4.5-0.1,8.8-1.3,13.1c-0.9,3.1-2.4,6-4.4,8.5c-2.8,3.6-6.1,6.6-10,8.9
	c-0.4,0.2-0.7,0.4-0.7,1c0,3.8,0,7.6,0,11.4c0,0.8,0.2,1.6,0.3,2.5c0.6-0.2,1.1-0.4,1.6-0.6c2.7-1.4,5.4-2.8,8-4.3
	c0.6-0.3,0.9-0.4,1.4,0.1c1.7,1.6,3.4,3.2,5.2,4.8c1.6,1.3,3.4,1.4,4.9,0c2.3-2.1,4.3-4.4,6.5-6.6c0.1-0.1,0.1-0.2,0.2-0.3
	c0.9-1.4,0.7-3.5-0.5-4.7c-1.5-1.6-3.1-3.3-4.6-4.9c-0.5-0.5-0.5-0.8-0.2-1.4c3-4.9,5.3-10.2,6.3-15.9c2.2,0,4.3,0,6.4,0
	c2.6,0,4.6-1.2,4.8-3.4c0.3-3.3,0.2-6.6,0-9.9c-0.1-1.5-1.2-2.6-2.8-2.9c-1.3-0.2-2.6-0.2-4-0.3c-1.5-0.1-3-0.1-4.5-0.1
	c-1.3-6-3.6-11.4-6.9-16.4c0.2-0.2,0.4-0.4,0.6-0.6c1.5-1.6,3.2-3.2,4.6-4.9c1.6-1.9,1.6-3.8,0-5.7c-1.8-2-3.8-4-5.8-5.8
	c-1.6-1.5-3.5-1.5-5.3-0.1c-1.5,1.2-2.9,2.6-4.3,3.9c-0.6,0.6-1.1,1.2-1.6,1.8c-1.2-0.7-2-1.4-3-1.9c-4-2.3-8.3-3.8-12.8-4.9
	c-0.6-0.2-0.8-0.4-0.8-1c0-2.2-0.2-4.5-0.2-6.7c-0.1-2.1-1.8-3.9-3.8-4c-2.4-0.1-4.8-0.2-7.2-0.1c-1.5,0-2.9,0.3-4,1.5
	c-1.5,1.7-1.3,3.8-1.4,5.8c0,1.1,0,2.3,0.1,3.5c0,0.8-0.3,1.2-1.1,1.3c-1.6,0.4-3.1,0.8-4.6,1.3
	C566.7-312.6,563.2-310.8,559.7-308.6z M576-287.3c-0.7,0.4-1.2,0.6-1.7,0.9c-4.8,3.6-7.5,8.4-7.5,14.5c0,3.8,0.9,7.3,3.2,10.3
	c1.3,1.7,2.8,3.1,4.1,4.7c0.7,0.8,1.3,1.8,1.5,2.8c0.4,1.9,0.6,3.8,0.7,5.7c0.1,6.1,0.2,12.3,0.2,18.4c0.1,12,0.2,23.9,0.3,35.9
	c0,2.6,0.5,5,2.8,6.7c2.3,1.6,4.7,2.2,7.2,1.2c2.2-0.9,4.2-2.3,4.8-4.9c0.3-1.4,0.4-2.9,0.4-4.4c0.1-2.6,0-5.2,0-7.9
	c0-8.5,0-16.9,0-25.4c0-7.4,0-14.9,0.2-22.3c0-1.9,0.6-3.6,2-5.1c1.9-1.9,3.7-4,5.3-6.1c3-4.1,3.5-8.8,2.4-13.7
	c-1-4.9-3.8-8.7-8.2-11.3c-0.5-0.3-1-0.4-1.6-0.6c-0.1,1.2-0.2,2.1-0.2,3c-0.1,3-0.1,5.9-0.2,8.9c0,2.2-2.2,4.6-4.4,4.8
	c-2,0.2-4.1,0.3-6.1,0.1c-3-0.2-5.1-2.4-5.2-5.1c-0.1-3-0.1-6-0.2-9C576.2-285.6,576.1-286.3,576-287.3z"/>
<path class="st13" d="M424,200.1c1.1-0.7,2.3-1.2,3.6-1.6c0.5-0.1,1-0.3,1.5-0.4c0.3-0.1,0.4-0.2,0.4-0.4c0-0.4,0-0.7,0-1
	c0-0.6,0-1.2,0.5-1.7c0.4-0.4,0.8-0.4,1.3-0.4c0.8,0,1.6,0,2.4,0.1c0.7,0,1.2,0.6,1.3,1.2c0,0.7,0.1,1.4,0.1,2c0,0.2,0,0.3,0.3,0.3
	c1.5,0.3,2.9,0.8,4.2,1.5c0.3,0.2,0.6,0.4,1,0.6c0.2-0.2,0.3-0.4,0.5-0.5c0.5-0.4,0.9-0.8,1.4-1.2c0.6-0.4,1.2-0.4,1.7,0.1
	c0.7,0.6,1.3,1.1,1.9,1.8c0.5,0.6,0.5,1.1,0,1.7c-0.5,0.5-1,1-1.5,1.5c-0.1,0.1-0.1,0.1-0.2,0.2c1.1,1.5,1.9,3.1,2.3,5
	c0.5,0,1,0,1.5,0c0.4,0,0.9,0,1.3,0.1c0.5,0.1,0.9,0.4,0.9,0.9c0.1,1,0.1,2,0,3c-0.1,0.7-0.7,1-1.6,1c-0.7,0-1.4,0-2.1,0
	c-0.3,1.7-1.1,3.3-2.1,4.8c-0.1,0.2-0.1,0.3,0,0.4c0.5,0.5,1,1,1.5,1.5c0.4,0.4,0.5,1,0.2,1.4c0,0,0,0.1-0.1,0.1
	c-0.7,0.7-1.4,1.4-2.2,2c-0.5,0.4-1.1,0.4-1.6,0c-0.6-0.5-1.2-0.9-1.7-1.4c-0.2-0.1-0.3-0.1-0.5,0c-0.9,0.4-1.8,0.9-2.7,1.3
	c-0.1,0.1-0.3,0.1-0.5,0.2c0-0.3-0.1-0.5-0.1-0.8c0-1.1,0-2.3,0-3.4c0-0.2,0.1-0.2,0.2-0.3c1.3-0.7,2.4-1.6,3.3-2.7
	c0.7-0.8,1.1-1.6,1.5-2.6c0.4-1.3,0.6-2.6,0.4-4c-0.3-2.2-1.3-4.1-3-5.6c-1.3-1.1-2.7-1.9-4.4-2.3c-1.2-0.3-2.3-0.3-3.5-0.2
	c-1.8,0.1-3.4,0.6-4.9,1.5c-1.1,0.7-2,1.5-2.7,2.5c-0.9,1.2-1.5,2.6-1.7,4c-0.2,1.7,0,3.4,0.7,5c0.4,0.7,0.7,1.5,1.3,2
	c0.9,0.8,1.7,1.7,2.8,2.3c0.2,0.1,0.2,0.2,0.2,0.4c0,1.3,0,2.5,0,3.8c0,0.1,0,0.2,0,0.4c-0.1-0.1-0.3-0.1-0.4-0.1
	c-0.9-0.4-1.7-0.8-2.6-1.2c-0.2-0.1-0.2-0.1-0.4,0c-0.6,0.5-1.2,1-1.9,1.5c-0.3,0.3-0.7,0.2-1.1,0.1c0,0-0.1,0-0.1-0.1
	c-1-0.6-1.9-1.4-2.5-2.3c-0.3-0.4-0.2-0.9,0.1-1.3c0.5-0.5,1-1,1.5-1.6c0.1-0.1,0.1-0.1,0.2-0.2c-0.1-0.2-0.2-0.4-0.4-0.5
	c-0.9-1.3-1.5-2.7-1.9-4.2c-0.1-0.3-0.2-0.3-0.5-0.3c-0.7,0-1.4,0-2.1-0.1c-0.8-0.1-1.3-0.6-1.3-1.3c0-0.7,0-1.5,0-2.2
	c0-0.7,0.7-1.4,1.5-1.4c0.7,0,1.4,0,2,0c0.2,0,0.2-0.1,0.3-0.2c0.4-1.4,0.8-2.7,1.6-3.9c0.2-0.3,0.4-0.6,0.6-1
	c-0.6-0.5-1.1-1.1-1.7-1.6c-0.4-0.4-0.5-1-0.2-1.4c0.1-0.1,0.2-0.3,0.3-0.4c0.6-0.5,1.1-1.1,1.7-1.6c0.6-0.6,1.5-0.5,2.1,0
	c0.5,0.4,1,0.9,1.5,1.3C423.9,200,424,200,424,200.1z"/>
<path class="st8" d="M429.9,223.1c0,0,0.1,6.8,0.1,10.1c0,0.7,0.1,1.4,0.9,1.9c0.7,0.4,1.4,0.6,2.2,0.3c0.7-0.2,1.3-0.6,1.5-1.4
	c0.1-0.4,0.1-0.8,0.1-1.2c0-0.7,0-1.5,0-2.2c0-2.4,0-4.8,0-7.2c0-2.1,0-4.2,0-6.3c0-0.5,0.2-1,0.6-1.4c0.6-0.6,1.1-1.1,1.6-1.7
	c0.9-1.2,1.1-2.5,0.8-3.9c-0.3-1.4-1.2-2.5-2.5-3.2c-0.1-0.1-0.3-0.1-0.5-0.2c0,0.3-0.1,0.6-0.1,0.9c0,0.8,0,1.7-0.1,2.5
	c0,0.6-0.7,1.3-1.4,1.4c-0.6,0.1-1.3,0.1-1.9,0c-0.9-0.1-1.6-0.7-1.6-1.4c0-0.9,0-1.7-0.1-2.5c0-0.2,0-0.4-0.1-0.7
	c-0.2,0.1-0.4,0.2-0.5,0.3c-1.5,1-2.3,2.4-2.3,4.1c0,1.1,0.3,2.1,1,2.9c0.4,0.5,0.9,0.9,1.3,1.3c0.2,0.2,0.4,0.5,0.5,0.8
	 M432.2,234.4c-0.5,0-1-0.5-1-0.9c0-0.6,0.4-1,1.1-1c0.6,0,1.1,0.4,1.1,0.9C433.4,234,432.9,234.4,432.2,234.4z"/>
<path class="st4" d="M645.5-216.1c1.9,0,3.5,1.4,3.5,3.3c0,2-1.6,3.5-3.7,3.5c-1.6,0-3.3-1.7-3.3-3.2
	C642-214.8,643.4-216.1,645.5-216.1z"/>
<path d="M439.6,279.9h-0.5c0-5.9,0-11.8,0-17.8c0.5,0.1,1,0.2,1.5,0.2c7.3,0,14.6,0,21.8,0c1.8,0,3.5,0,5.3,0c0.6,0,0.8,0.2,0.7,0.7
	c-0.1,0.6-0.2,1.3-0.3,2c-1.2,7.8-8.9,14.2-17.5,14.6c-3.4,0.1-6.8,0.1-10.2,0.1C440.2,279.6,439.9,279.8,439.6,279.9z"/>
<path class="st4" d="M908.5,600c2.9-1,5.8-2.8,8.8-2.8c34-0.5,68.1,0.3,102-1.2c86.9-3.8,163.5-74.1,175.7-160
	c1-7.2,1.7-14.4,2.9-21.5c0.9-5.8-1.3-7.7-7.1-7.7c-17.7,0.2-35.5,0-53.2,0c-73,0-146,0.1-219,0c-5.1,0-10.2-1.2-15.4-1.8
	c2.3-0.6,4.7-1.7,7-1.7c99-0.1,198-0.1,297.1-0.1l0,0c0,108.7-88.1,196.8-196.8,196.8L908.5,600L908.5,600z"/>
</svg>
